G04 #@! TF.FileFunction,Legend,Bot*
%FSLAX46Y46*%
G04 Gerber Fmt 4.6, Leading zero omitted, Abs format (unit mm)*
G04 Created by KiCad (PCBNEW 4.0.7) date 01/13/18 10:07:04*
%MOMM*%
%LPD*%
G01*
G04 APERTURE LIST*
%ADD10C,0.100000*%
%ADD11C,2.400000*%
%ADD12R,2.100000X2.100000*%
%ADD13O,2.100000X2.100000*%
%ADD14C,2.000000*%
%ADD15O,2.000000X2.000000*%
%ADD16C,2.020000*%
G04 APERTURE END LIST*
D10*
%LPC*%
D11*
X92225000Y-74676000D03*
X85725000Y-74676000D03*
X92225000Y-68176000D03*
X85725000Y-68176000D03*
X88265000Y-116760000D03*
X88265000Y-111760000D03*
X88265000Y-106760000D03*
D12*
X162206000Y-81978500D03*
D13*
X159666000Y-81978500D03*
X157126000Y-81978500D03*
X154586000Y-81978500D03*
X152046000Y-81978500D03*
X149506000Y-81978500D03*
D11*
X88265000Y-99488000D03*
X88265000Y-94488000D03*
X88265000Y-89488000D03*
D12*
X152594500Y-93790000D03*
D13*
X152594500Y-96330000D03*
X152594500Y-98870000D03*
X152594500Y-101410000D03*
D12*
X149369200Y-121056400D03*
D13*
X151909200Y-121056400D03*
X154449200Y-121056400D03*
X156989200Y-121056400D03*
X139210000Y-108113000D03*
X139210000Y-105573000D03*
X139210000Y-103033000D03*
X139210000Y-100493000D03*
X139210000Y-97953000D03*
X139210000Y-95413000D03*
X139210000Y-92873000D03*
X139210000Y-90333000D03*
X139210000Y-87793000D03*
X139210000Y-85253000D03*
X139210000Y-82713000D03*
X139210000Y-80173000D03*
X139210000Y-77633000D03*
X139210000Y-75093000D03*
D12*
X139210000Y-72553000D03*
X139210000Y-72553000D03*
D13*
X139210000Y-75093000D03*
X139210000Y-77633000D03*
X139210000Y-80173000D03*
X139210000Y-82713000D03*
X139210000Y-85253000D03*
X139210000Y-87793000D03*
X139210000Y-90333000D03*
X139210000Y-92873000D03*
X139210000Y-95413000D03*
X139210000Y-97953000D03*
X139210000Y-100493000D03*
X139210000Y-103033000D03*
X139210000Y-105573000D03*
X139210000Y-108113000D03*
X113510000Y-108213000D03*
X113510000Y-105673000D03*
X113510000Y-103133000D03*
X113510000Y-100593000D03*
X113510000Y-98053000D03*
X113510000Y-95513000D03*
X113510000Y-92973000D03*
X113510000Y-90433000D03*
X113510000Y-87893000D03*
X113510000Y-85353000D03*
X113510000Y-82813000D03*
X113510000Y-80273000D03*
X113510000Y-77733000D03*
X113510000Y-75193000D03*
D12*
X113510000Y-72653000D03*
X113510000Y-72653000D03*
D13*
X113510000Y-75193000D03*
X113510000Y-77733000D03*
X113510000Y-80273000D03*
X113510000Y-82813000D03*
X113510000Y-85353000D03*
X113510000Y-87893000D03*
X113510000Y-90433000D03*
X113510000Y-92973000D03*
X113510000Y-95513000D03*
X113510000Y-98053000D03*
X113510000Y-100593000D03*
X113510000Y-103133000D03*
X113510000Y-105673000D03*
X113510000Y-108213000D03*
D14*
X156654500Y-106807000D03*
D15*
X164274500Y-106807000D03*
D16*
X98171000Y-68660000D03*
X103171000Y-71160000D03*
X98171000Y-73660000D03*
M02*
