G04 #@! TF.FileFunction,Copper,L1,Top,Signal*
%FSLAX46Y46*%
G04 Gerber Fmt 4.6, Leading zero omitted, Abs format (unit mm)*
G04 Created by KiCad (PCBNEW 4.0.7) date 01/13/18 10:07:04*
%MOMM*%
%LPD*%
G01*
G04 APERTURE LIST*
%ADD10C,0.100000*%
%ADD11C,2.000000*%
%ADD12R,1.500000X1.300000*%
%ADD13R,1.700000X1.700000*%
%ADD14O,1.700000X1.700000*%
%ADD15R,1.700000X2.000000*%
%ADD16R,1.300000X1.500000*%
%ADD17C,1.600000*%
%ADD18O,1.600000X1.600000*%
%ADD19C,1.620000*%
%ADD20C,0.685800*%
%ADD21C,0.330200*%
%ADD22C,0.250000*%
%ADD23C,0.254000*%
G04 APERTURE END LIST*
D10*
D11*
X92225000Y-74676000D03*
X85725000Y-74676000D03*
X92225000Y-68176000D03*
X85725000Y-68176000D03*
D12*
X103648500Y-86487000D03*
X100948500Y-86487000D03*
D11*
X88265000Y-116760000D03*
X88265000Y-111760000D03*
X88265000Y-106760000D03*
D13*
X162206000Y-81978500D03*
D14*
X159666000Y-81978500D03*
X157126000Y-81978500D03*
X154586000Y-81978500D03*
X152046000Y-81978500D03*
X149506000Y-81978500D03*
D11*
X88265000Y-99488000D03*
X88265000Y-94488000D03*
X88265000Y-89488000D03*
D13*
X152594500Y-93790000D03*
D14*
X152594500Y-96330000D03*
X152594500Y-98870000D03*
X152594500Y-101410000D03*
D15*
X96583500Y-82391500D03*
X96583500Y-86391500D03*
X96774000Y-90964000D03*
X96774000Y-94964000D03*
D13*
X149369200Y-121056400D03*
D14*
X151909200Y-121056400D03*
X154449200Y-121056400D03*
X156989200Y-121056400D03*
X139210000Y-108113000D03*
X139210000Y-105573000D03*
X139210000Y-103033000D03*
X139210000Y-100493000D03*
X139210000Y-97953000D03*
X139210000Y-95413000D03*
X139210000Y-92873000D03*
X139210000Y-90333000D03*
X139210000Y-87793000D03*
X139210000Y-85253000D03*
X139210000Y-82713000D03*
X139210000Y-80173000D03*
X139210000Y-77633000D03*
X139210000Y-75093000D03*
D13*
X139210000Y-72553000D03*
X139210000Y-72553000D03*
D14*
X139210000Y-75093000D03*
X139210000Y-77633000D03*
X139210000Y-80173000D03*
X139210000Y-82713000D03*
X139210000Y-85253000D03*
X139210000Y-87793000D03*
X139210000Y-90333000D03*
X139210000Y-92873000D03*
X139210000Y-95413000D03*
X139210000Y-97953000D03*
X139210000Y-100493000D03*
X139210000Y-103033000D03*
X139210000Y-105573000D03*
X139210000Y-108113000D03*
X113510000Y-108213000D03*
X113510000Y-105673000D03*
X113510000Y-103133000D03*
X113510000Y-100593000D03*
X113510000Y-98053000D03*
X113510000Y-95513000D03*
X113510000Y-92973000D03*
X113510000Y-90433000D03*
X113510000Y-87893000D03*
X113510000Y-85353000D03*
X113510000Y-82813000D03*
X113510000Y-80273000D03*
X113510000Y-77733000D03*
X113510000Y-75193000D03*
D13*
X113510000Y-72653000D03*
X113510000Y-72653000D03*
D14*
X113510000Y-75193000D03*
X113510000Y-77733000D03*
X113510000Y-80273000D03*
X113510000Y-82813000D03*
X113510000Y-85353000D03*
X113510000Y-87893000D03*
X113510000Y-90433000D03*
X113510000Y-92973000D03*
X113510000Y-95513000D03*
X113510000Y-98053000D03*
X113510000Y-100593000D03*
X113510000Y-103133000D03*
X113510000Y-105673000D03*
X113510000Y-108213000D03*
D12*
X103712000Y-95250000D03*
X101012000Y-95250000D03*
D16*
X151790400Y-113922800D03*
X151790400Y-111222800D03*
D12*
X91106000Y-79629000D03*
X93806000Y-79629000D03*
X151527500Y-106807000D03*
X148827500Y-106807000D03*
D17*
X156654500Y-106807000D03*
D18*
X164274500Y-106807000D03*
D19*
X98171000Y-68660000D03*
X103171000Y-71160000D03*
X98171000Y-73660000D03*
D20*
X150266400Y-111048800D03*
X146913600Y-106680000D03*
D21*
X151790400Y-111222800D02*
X150440400Y-111222800D01*
X150440400Y-111222800D02*
X150266400Y-111048800D01*
X147040600Y-106807000D02*
X146913600Y-106680000D01*
X148827500Y-106807000D02*
X147040600Y-106807000D01*
D22*
X149569500Y-81243500D02*
X149415500Y-81089500D01*
X149442500Y-82359500D02*
X149442500Y-79973500D01*
X149379000Y-79719500D02*
X149352000Y-79692500D01*
X149379000Y-79719500D02*
X149352000Y-79692500D01*
X149442500Y-82359500D02*
X149442500Y-79719500D01*
X149442500Y-82359500D02*
X149442500Y-81824500D01*
X90758000Y-79756000D02*
X90504000Y-80010000D01*
X90377000Y-79629000D02*
X90377000Y-76257000D01*
X90377000Y-76257000D02*
X88796000Y-74676000D01*
D23*
X152594500Y-98870000D02*
X148717500Y-98870000D01*
X145768500Y-75093000D02*
X139210000Y-75093000D01*
X146939000Y-76263500D02*
X145768500Y-75093000D01*
X146939000Y-97091500D02*
X146939000Y-76263500D01*
X148717500Y-98870000D02*
X146939000Y-97091500D01*
X139210000Y-82713000D02*
X142593500Y-82713000D01*
X147765000Y-101410000D02*
X152594500Y-101410000D01*
X142684500Y-96329500D02*
X147765000Y-101410000D01*
X142684500Y-82804000D02*
X142684500Y-96329500D01*
X142593500Y-82713000D02*
X142684500Y-82804000D01*
D21*
X96583500Y-86391500D02*
X100853000Y-86391500D01*
X100853000Y-86391500D02*
X100948500Y-86487000D01*
D23*
X96742500Y-86550500D02*
X96583500Y-86391500D01*
D22*
X96742500Y-86550500D02*
X96583500Y-86391500D01*
X96742500Y-86550500D02*
X96583500Y-86391500D01*
D23*
X96774000Y-94964000D02*
X100726000Y-94964000D01*
X100726000Y-94964000D02*
X101012000Y-95250000D01*
D22*
X100726000Y-94964000D02*
X101012000Y-95250000D01*
X100726000Y-94964000D02*
X101012000Y-95250000D01*
D21*
X151790400Y-113922800D02*
X148670000Y-113922800D01*
X141183800Y-103033000D02*
X139210000Y-103033000D01*
X142748000Y-104597200D02*
X141183800Y-103033000D01*
X142748000Y-108000800D02*
X142748000Y-104597200D01*
X148670000Y-113922800D02*
X142748000Y-108000800D01*
X151909200Y-121056400D02*
X151909200Y-114041600D01*
X151909200Y-114041600D02*
X151790400Y-113922800D01*
X152023500Y-114629500D02*
X152209500Y-114443500D01*
D23*
X152150500Y-114502500D02*
X152209500Y-114443500D01*
D22*
X152150500Y-114502500D02*
X152209500Y-114443500D01*
X152150500Y-114502500D02*
X152209500Y-114443500D01*
D23*
X139210000Y-97953000D02*
X141387000Y-97953000D01*
X151527500Y-104918500D02*
X151527500Y-106807000D01*
X150495000Y-103886000D02*
X151527500Y-104918500D01*
X145034000Y-103886000D02*
X150495000Y-103886000D01*
X142049500Y-100901500D02*
X145034000Y-103886000D01*
X142049500Y-98615500D02*
X142049500Y-100901500D01*
X141387000Y-97953000D02*
X142049500Y-98615500D01*
X151527500Y-106807000D02*
X156654500Y-106807000D01*
X157126000Y-81978500D02*
X157126000Y-74141000D01*
X155538000Y-72553000D02*
X139210000Y-72553000D01*
X157126000Y-74141000D02*
X155538000Y-72553000D01*
X94742000Y-115506500D02*
X94742000Y-110490000D01*
X93488500Y-116760000D02*
X94742000Y-115506500D01*
X88265000Y-116760000D02*
X93488500Y-116760000D01*
X97019000Y-108213000D02*
X113510000Y-108213000D01*
X94742000Y-110490000D02*
X97019000Y-108213000D01*
X88265000Y-99488000D02*
X88265000Y-101409500D01*
X89988500Y-103133000D02*
X113510000Y-103133000D01*
X88265000Y-101409500D02*
X89988500Y-103133000D01*
D22*
X113265000Y-103378000D02*
X113510000Y-103133000D01*
D23*
X113510000Y-100593000D02*
X93417500Y-100593000D01*
X91122500Y-97345500D02*
X88265000Y-94488000D01*
X91122500Y-98298000D02*
X91122500Y-97345500D01*
X93417500Y-100593000D02*
X91122500Y-98298000D01*
D22*
X88265000Y-94488000D02*
X88265000Y-94551500D01*
X88265000Y-94488000D02*
X88265000Y-94615000D01*
D23*
X88265000Y-89488000D02*
X91393000Y-89488000D01*
X95313500Y-98234500D02*
X113328500Y-98234500D01*
X92138500Y-95059500D02*
X95313500Y-98234500D01*
X92138500Y-90233500D02*
X92138500Y-95059500D01*
X91393000Y-89488000D02*
X92138500Y-90233500D01*
X113328500Y-98234500D02*
X113510000Y-98053000D01*
D22*
X113392000Y-98171000D02*
X113510000Y-98053000D01*
D23*
X103712000Y-95250000D02*
X113247000Y-95250000D01*
X113247000Y-95250000D02*
X113510000Y-95513000D01*
D22*
X113247000Y-95250000D02*
X113510000Y-95513000D01*
X113247000Y-95250000D02*
X113510000Y-95513000D01*
X113247000Y-95250000D02*
X113510000Y-95513000D01*
D21*
X103648500Y-86487000D02*
X105283000Y-86487000D01*
X109483000Y-92973000D02*
X113510000Y-92973000D01*
X107696000Y-91186000D02*
X109483000Y-92973000D01*
X107696000Y-88900000D02*
X107696000Y-91186000D01*
X105283000Y-86487000D02*
X107696000Y-88900000D01*
D22*
X113510000Y-92973000D02*
X112848500Y-92973000D01*
D23*
X93806000Y-79629000D02*
X102679500Y-79629000D01*
X110943500Y-87893000D02*
X113510000Y-87893000D01*
X102679500Y-79629000D02*
X110943500Y-87893000D01*
X92225000Y-74676000D02*
X93599000Y-74676000D01*
X93806000Y-74883000D02*
X93806000Y-79629000D01*
X93599000Y-74676000D02*
X93806000Y-74883000D01*
D22*
X113510000Y-87893000D02*
X113229500Y-87893000D01*
D23*
X103171000Y-71160000D02*
X105450000Y-71160000D01*
X109093000Y-80936000D02*
X113510000Y-85353000D01*
X109093000Y-74803000D02*
X109093000Y-80936000D01*
X105450000Y-71160000D02*
X109093000Y-74803000D01*
D22*
X103171000Y-71160000D02*
X103799000Y-71160000D01*
D23*
G36*
X165914000Y-123242000D02*
X80847000Y-123242000D01*
X80847000Y-112083795D01*
X86629716Y-112083795D01*
X86878106Y-112684943D01*
X87337637Y-113145278D01*
X87938352Y-113394716D01*
X88588795Y-113395284D01*
X89189943Y-113146894D01*
X89650278Y-112687363D01*
X89899716Y-112086648D01*
X89900284Y-111436205D01*
X89651894Y-110835057D01*
X89192363Y-110374722D01*
X88591648Y-110125284D01*
X87941205Y-110124716D01*
X87340057Y-110373106D01*
X86879722Y-110832637D01*
X86630284Y-111433352D01*
X86629716Y-112083795D01*
X80847000Y-112083795D01*
X80847000Y-107912532D01*
X87292073Y-107912532D01*
X87390736Y-108179387D01*
X88000461Y-108405908D01*
X88650460Y-108381856D01*
X89139264Y-108179387D01*
X89237927Y-107912532D01*
X88265000Y-106939605D01*
X87292073Y-107912532D01*
X80847000Y-107912532D01*
X80847000Y-106495461D01*
X86619092Y-106495461D01*
X86643144Y-107145460D01*
X86845613Y-107634264D01*
X87112468Y-107732927D01*
X88085395Y-106760000D01*
X88444605Y-106760000D01*
X89417532Y-107732927D01*
X89684387Y-107634264D01*
X89910908Y-107024539D01*
X89886856Y-106374540D01*
X89684387Y-105885736D01*
X89417532Y-105787073D01*
X88444605Y-106760000D01*
X88085395Y-106760000D01*
X87112468Y-105787073D01*
X86845613Y-105885736D01*
X86619092Y-106495461D01*
X80847000Y-106495461D01*
X80847000Y-105607468D01*
X87292073Y-105607468D01*
X88265000Y-106580395D01*
X89237927Y-105607468D01*
X89139264Y-105340613D01*
X88529539Y-105114092D01*
X87879540Y-105138144D01*
X87390736Y-105340613D01*
X87292073Y-105607468D01*
X80847000Y-105607468D01*
X80847000Y-89811795D01*
X86629716Y-89811795D01*
X86878106Y-90412943D01*
X87337637Y-90873278D01*
X87938352Y-91122716D01*
X88588795Y-91123284D01*
X89189943Y-90874894D01*
X89650278Y-90415363D01*
X89718943Y-90250000D01*
X91077370Y-90250000D01*
X91376500Y-90549131D01*
X91376500Y-95059500D01*
X91434504Y-95351105D01*
X91576139Y-95563076D01*
X91599685Y-95598315D01*
X94774685Y-98773315D01*
X95021895Y-98938496D01*
X95313500Y-98996500D01*
X112359656Y-98996500D01*
X112430853Y-99103054D01*
X112760026Y-99323000D01*
X112430853Y-99542946D01*
X112238382Y-99831000D01*
X93733130Y-99831000D01*
X91884500Y-97982370D01*
X91884500Y-97345500D01*
X91826496Y-97053895D01*
X91702495Y-96868315D01*
X91661315Y-96806684D01*
X89832105Y-94977474D01*
X89899716Y-94814648D01*
X89900284Y-94164205D01*
X89651894Y-93563057D01*
X89192363Y-93102722D01*
X88591648Y-92853284D01*
X87941205Y-92852716D01*
X87340057Y-93101106D01*
X86879722Y-93560637D01*
X86630284Y-94161352D01*
X86629716Y-94811795D01*
X86878106Y-95412943D01*
X87337637Y-95873278D01*
X87938352Y-96122716D01*
X88588795Y-96123284D01*
X88754277Y-96054908D01*
X90360500Y-97661131D01*
X90360500Y-98298000D01*
X90418504Y-98589605D01*
X90502291Y-98715000D01*
X90583685Y-98836815D01*
X92878685Y-101131815D01*
X93125895Y-101296996D01*
X93417500Y-101355000D01*
X112238382Y-101355000D01*
X112430853Y-101643054D01*
X112760026Y-101863000D01*
X112430853Y-102082946D01*
X112238382Y-102371000D01*
X90304130Y-102371000D01*
X89027000Y-101093870D01*
X89027000Y-100942221D01*
X89189943Y-100874894D01*
X89650278Y-100415363D01*
X89899716Y-99814648D01*
X89900284Y-99164205D01*
X89651894Y-98563057D01*
X89192363Y-98102722D01*
X88591648Y-97853284D01*
X87941205Y-97852716D01*
X87340057Y-98101106D01*
X86879722Y-98560637D01*
X86630284Y-99161352D01*
X86629716Y-99811795D01*
X86878106Y-100412943D01*
X87337637Y-100873278D01*
X87503000Y-100941943D01*
X87503000Y-101409500D01*
X87561004Y-101701105D01*
X87726185Y-101948315D01*
X89449685Y-103671815D01*
X89696895Y-103836996D01*
X89988500Y-103895000D01*
X112238382Y-103895000D01*
X112430853Y-104183054D01*
X112760026Y-104403000D01*
X112430853Y-104622946D01*
X112108946Y-105104715D01*
X111995907Y-105673000D01*
X112108946Y-106241285D01*
X112430853Y-106723054D01*
X112760026Y-106943000D01*
X112430853Y-107162946D01*
X112238382Y-107451000D01*
X97019000Y-107451000D01*
X96729728Y-107508540D01*
X96727395Y-107509004D01*
X96480184Y-107674185D01*
X94203185Y-109951185D01*
X94038004Y-110198395D01*
X93980000Y-110490000D01*
X93980000Y-115190869D01*
X93172870Y-115998000D01*
X89719221Y-115998000D01*
X89651894Y-115835057D01*
X89192363Y-115374722D01*
X88591648Y-115125284D01*
X87941205Y-115124716D01*
X87340057Y-115373106D01*
X86879722Y-115832637D01*
X86630284Y-116433352D01*
X86629716Y-117083795D01*
X86878106Y-117684943D01*
X87337637Y-118145278D01*
X87938352Y-118394716D01*
X88588795Y-118395284D01*
X89189943Y-118146894D01*
X89650278Y-117687363D01*
X89718943Y-117522000D01*
X93488500Y-117522000D01*
X93780105Y-117463996D01*
X94027315Y-117298815D01*
X95280816Y-116045315D01*
X95422922Y-115832637D01*
X95445996Y-115798105D01*
X95504000Y-115506500D01*
X95504000Y-110805630D01*
X97334631Y-108975000D01*
X112238382Y-108975000D01*
X112430853Y-109263054D01*
X112912622Y-109584961D01*
X113480907Y-109698000D01*
X113539093Y-109698000D01*
X114107378Y-109584961D01*
X114589147Y-109263054D01*
X114911054Y-108781285D01*
X115024093Y-108213000D01*
X115004202Y-108113000D01*
X137695907Y-108113000D01*
X137808946Y-108681285D01*
X138130853Y-109163054D01*
X138612622Y-109484961D01*
X139180907Y-109598000D01*
X139239093Y-109598000D01*
X139807378Y-109484961D01*
X140289147Y-109163054D01*
X140611054Y-108681285D01*
X140724093Y-108113000D01*
X140611054Y-107544715D01*
X140289147Y-107062946D01*
X139948447Y-106835298D01*
X140091358Y-106768183D01*
X140481645Y-106339924D01*
X140651476Y-105929890D01*
X140530155Y-105700000D01*
X139337000Y-105700000D01*
X139337000Y-105720000D01*
X139083000Y-105720000D01*
X139083000Y-105700000D01*
X137889845Y-105700000D01*
X137768524Y-105929890D01*
X137938355Y-106339924D01*
X138328642Y-106768183D01*
X138471553Y-106835298D01*
X138130853Y-107062946D01*
X137808946Y-107544715D01*
X137695907Y-108113000D01*
X115004202Y-108113000D01*
X114911054Y-107644715D01*
X114589147Y-107162946D01*
X114259974Y-106943000D01*
X114589147Y-106723054D01*
X114911054Y-106241285D01*
X115024093Y-105673000D01*
X114911054Y-105104715D01*
X114589147Y-104622946D01*
X114259974Y-104403000D01*
X114589147Y-104183054D01*
X114911054Y-103701285D01*
X115024093Y-103133000D01*
X114911054Y-102564715D01*
X114589147Y-102082946D01*
X114259974Y-101863000D01*
X114589147Y-101643054D01*
X114911054Y-101161285D01*
X115024093Y-100593000D01*
X114911054Y-100024715D01*
X114589147Y-99542946D01*
X114259974Y-99323000D01*
X114589147Y-99103054D01*
X114911054Y-98621285D01*
X115024093Y-98053000D01*
X114911054Y-97484715D01*
X114589147Y-97002946D01*
X114259974Y-96783000D01*
X114589147Y-96563054D01*
X114911054Y-96081285D01*
X115024093Y-95513000D01*
X114911054Y-94944715D01*
X114589147Y-94462946D01*
X114259974Y-94243000D01*
X114589147Y-94023054D01*
X114911054Y-93541285D01*
X115024093Y-92973000D01*
X114911054Y-92404715D01*
X114589147Y-91922946D01*
X114259974Y-91703000D01*
X114589147Y-91483054D01*
X114911054Y-91001285D01*
X115024093Y-90433000D01*
X114911054Y-89864715D01*
X114589147Y-89382946D01*
X114259974Y-89163000D01*
X114589147Y-88943054D01*
X114911054Y-88461285D01*
X115024093Y-87893000D01*
X114911054Y-87324715D01*
X114589147Y-86842946D01*
X114259974Y-86623000D01*
X114589147Y-86403054D01*
X114911054Y-85921285D01*
X115024093Y-85353000D01*
X114911054Y-84784715D01*
X114589147Y-84302946D01*
X114259974Y-84083000D01*
X114589147Y-83863054D01*
X114911054Y-83381285D01*
X115024093Y-82813000D01*
X114911054Y-82244715D01*
X114589147Y-81762946D01*
X114259974Y-81543000D01*
X114589147Y-81323054D01*
X114911054Y-80841285D01*
X115024093Y-80273000D01*
X114911054Y-79704715D01*
X114589147Y-79222946D01*
X114259974Y-79003000D01*
X114589147Y-78783054D01*
X114911054Y-78301285D01*
X115024093Y-77733000D01*
X114911054Y-77164715D01*
X114589147Y-76682946D01*
X114259974Y-76463000D01*
X114589147Y-76243054D01*
X114911054Y-75761285D01*
X115024093Y-75193000D01*
X115004202Y-75093000D01*
X137695907Y-75093000D01*
X137808946Y-75661285D01*
X138130853Y-76143054D01*
X138460026Y-76363000D01*
X138130853Y-76582946D01*
X137808946Y-77064715D01*
X137695907Y-77633000D01*
X137808946Y-78201285D01*
X138130853Y-78683054D01*
X138460026Y-78903000D01*
X138130853Y-79122946D01*
X137808946Y-79604715D01*
X137695907Y-80173000D01*
X137808946Y-80741285D01*
X138130853Y-81223054D01*
X138460026Y-81443000D01*
X138130853Y-81662946D01*
X137808946Y-82144715D01*
X137695907Y-82713000D01*
X137808946Y-83281285D01*
X138130853Y-83763054D01*
X138460026Y-83983000D01*
X138130853Y-84202946D01*
X137808946Y-84684715D01*
X137695907Y-85253000D01*
X137808946Y-85821285D01*
X138130853Y-86303054D01*
X138460026Y-86523000D01*
X138130853Y-86742946D01*
X137808946Y-87224715D01*
X137695907Y-87793000D01*
X137808946Y-88361285D01*
X138130853Y-88843054D01*
X138460026Y-89063000D01*
X138130853Y-89282946D01*
X137808946Y-89764715D01*
X137695907Y-90333000D01*
X137808946Y-90901285D01*
X138130853Y-91383054D01*
X138460026Y-91603000D01*
X138130853Y-91822946D01*
X137808946Y-92304715D01*
X137695907Y-92873000D01*
X137808946Y-93441285D01*
X138130853Y-93923054D01*
X138460026Y-94143000D01*
X138130853Y-94362946D01*
X137808946Y-94844715D01*
X137695907Y-95413000D01*
X137808946Y-95981285D01*
X138130853Y-96463054D01*
X138460026Y-96683000D01*
X138130853Y-96902946D01*
X137808946Y-97384715D01*
X137695907Y-97953000D01*
X137808946Y-98521285D01*
X138130853Y-99003054D01*
X138460026Y-99223000D01*
X138130853Y-99442946D01*
X137808946Y-99924715D01*
X137695907Y-100493000D01*
X137808946Y-101061285D01*
X138130853Y-101543054D01*
X138460026Y-101763000D01*
X138130853Y-101982946D01*
X137808946Y-102464715D01*
X137695907Y-103033000D01*
X137808946Y-103601285D01*
X138130853Y-104083054D01*
X138471553Y-104310702D01*
X138328642Y-104377817D01*
X137938355Y-104806076D01*
X137768524Y-105216110D01*
X137889845Y-105446000D01*
X139083000Y-105446000D01*
X139083000Y-105426000D01*
X139337000Y-105426000D01*
X139337000Y-105446000D01*
X140530155Y-105446000D01*
X140651476Y-105216110D01*
X140481645Y-104806076D01*
X140091358Y-104377817D01*
X139948447Y-104310702D01*
X140289147Y-104083054D01*
X140456161Y-103833100D01*
X140852388Y-103833100D01*
X141947900Y-104928612D01*
X141947900Y-108000800D01*
X142008804Y-108306985D01*
X142182244Y-108566556D01*
X148104244Y-114488556D01*
X148363815Y-114661996D01*
X148670000Y-114722900D01*
X150502387Y-114722900D01*
X150537238Y-114908117D01*
X150676310Y-115124241D01*
X150888510Y-115269231D01*
X151109100Y-115313902D01*
X151109100Y-119810239D01*
X150859146Y-119977253D01*
X150831350Y-120018852D01*
X150822362Y-119971083D01*
X150683290Y-119754959D01*
X150471090Y-119609969D01*
X150219200Y-119558960D01*
X148519200Y-119558960D01*
X148283883Y-119603238D01*
X148067759Y-119742310D01*
X147922769Y-119954510D01*
X147871760Y-120206400D01*
X147871760Y-121906400D01*
X147916038Y-122141717D01*
X148055110Y-122357841D01*
X148267310Y-122502831D01*
X148519200Y-122553840D01*
X150219200Y-122553840D01*
X150454517Y-122509562D01*
X150670641Y-122370490D01*
X150815631Y-122158290D01*
X150829286Y-122090859D01*
X150859146Y-122135547D01*
X151340915Y-122457454D01*
X151909200Y-122570493D01*
X152477485Y-122457454D01*
X152959254Y-122135547D01*
X153179200Y-121806374D01*
X153399146Y-122135547D01*
X153880915Y-122457454D01*
X154449200Y-122570493D01*
X155017485Y-122457454D01*
X155499254Y-122135547D01*
X155726902Y-121794847D01*
X155794017Y-121937758D01*
X156222276Y-122328045D01*
X156632310Y-122497876D01*
X156862200Y-122376555D01*
X156862200Y-121183400D01*
X157116200Y-121183400D01*
X157116200Y-122376555D01*
X157346090Y-122497876D01*
X157756124Y-122328045D01*
X158184383Y-121937758D01*
X158430686Y-121413292D01*
X158310019Y-121183400D01*
X157116200Y-121183400D01*
X156862200Y-121183400D01*
X156842200Y-121183400D01*
X156842200Y-120929400D01*
X156862200Y-120929400D01*
X156862200Y-119736245D01*
X157116200Y-119736245D01*
X157116200Y-120929400D01*
X158310019Y-120929400D01*
X158430686Y-120699508D01*
X158184383Y-120175042D01*
X157756124Y-119784755D01*
X157346090Y-119614924D01*
X157116200Y-119736245D01*
X156862200Y-119736245D01*
X156632310Y-119614924D01*
X156222276Y-119784755D01*
X155794017Y-120175042D01*
X155726902Y-120317953D01*
X155499254Y-119977253D01*
X155017485Y-119655346D01*
X154449200Y-119542307D01*
X153880915Y-119655346D01*
X153399146Y-119977253D01*
X153179200Y-120306426D01*
X152959254Y-119977253D01*
X152709300Y-119810239D01*
X152709300Y-115254352D01*
X152891841Y-115136890D01*
X153036831Y-114924690D01*
X153087840Y-114672800D01*
X153087840Y-113172800D01*
X153043562Y-112937483D01*
X152904490Y-112721359D01*
X152692290Y-112576369D01*
X152679203Y-112573719D01*
X152891841Y-112436890D01*
X153036831Y-112224690D01*
X153087840Y-111972800D01*
X153087840Y-110472800D01*
X153043562Y-110237483D01*
X152904490Y-110021359D01*
X152692290Y-109876369D01*
X152440400Y-109825360D01*
X151140400Y-109825360D01*
X150905083Y-109869638D01*
X150688959Y-110008710D01*
X150605556Y-110130775D01*
X150461770Y-110071070D01*
X150072737Y-110070731D01*
X149713188Y-110219293D01*
X149437860Y-110494141D01*
X149288670Y-110853430D01*
X149288331Y-111242463D01*
X149436893Y-111602012D01*
X149711741Y-111877340D01*
X150071030Y-112026530D01*
X150460063Y-112026869D01*
X150469669Y-112022900D01*
X150502387Y-112022900D01*
X150537238Y-112208117D01*
X150676310Y-112424241D01*
X150888510Y-112569231D01*
X150901597Y-112571881D01*
X150688959Y-112708710D01*
X150543969Y-112920910D01*
X150503106Y-113122700D01*
X149001412Y-113122700D01*
X143548100Y-107669388D01*
X143548100Y-104597200D01*
X143487196Y-104291015D01*
X143313756Y-104031444D01*
X141749556Y-102467244D01*
X141489985Y-102293804D01*
X141183800Y-102232900D01*
X140456161Y-102232900D01*
X140289147Y-101982946D01*
X139959974Y-101763000D01*
X140289147Y-101543054D01*
X140611054Y-101061285D01*
X140724093Y-100493000D01*
X140611054Y-99924715D01*
X140289147Y-99442946D01*
X139959974Y-99223000D01*
X140289147Y-99003054D01*
X140481618Y-98715000D01*
X141071370Y-98715000D01*
X141287500Y-98931131D01*
X141287500Y-100901500D01*
X141345504Y-101193105D01*
X141453679Y-101355000D01*
X141510685Y-101440315D01*
X144495184Y-104424815D01*
X144742395Y-104589996D01*
X145034000Y-104648000D01*
X150179370Y-104648000D01*
X150765500Y-105234131D01*
X150765500Y-105511818D01*
X150542183Y-105553838D01*
X150326059Y-105692910D01*
X150181069Y-105905110D01*
X150178419Y-105918197D01*
X150041590Y-105705559D01*
X149829390Y-105560569D01*
X149577500Y-105509560D01*
X148077500Y-105509560D01*
X147842183Y-105553838D01*
X147626059Y-105692910D01*
X147497626Y-105880878D01*
X147468259Y-105851460D01*
X147108970Y-105702270D01*
X146719937Y-105701931D01*
X146360388Y-105850493D01*
X146085060Y-106125341D01*
X145935870Y-106484630D01*
X145935531Y-106873663D01*
X146084093Y-107233212D01*
X146358941Y-107508540D01*
X146718230Y-107657730D01*
X147107263Y-107658069D01*
X147230618Y-107607100D01*
X147458303Y-107607100D01*
X147474338Y-107692317D01*
X147613410Y-107908441D01*
X147825610Y-108053431D01*
X148077500Y-108104440D01*
X149577500Y-108104440D01*
X149812817Y-108060162D01*
X150028941Y-107921090D01*
X150173931Y-107708890D01*
X150176581Y-107695803D01*
X150313410Y-107908441D01*
X150525610Y-108053431D01*
X150777500Y-108104440D01*
X152277500Y-108104440D01*
X152512817Y-108060162D01*
X152728941Y-107921090D01*
X152873931Y-107708890D01*
X152902259Y-107569000D01*
X155416680Y-107569000D01*
X155437257Y-107618800D01*
X155840577Y-108022824D01*
X156367809Y-108241750D01*
X156938687Y-108242248D01*
X157466300Y-108024243D01*
X157870324Y-107620923D01*
X158063360Y-107156039D01*
X162882596Y-107156039D01*
X163043459Y-107544423D01*
X163419366Y-107959389D01*
X163925459Y-108198914D01*
X164147500Y-108077629D01*
X164147500Y-106934000D01*
X164401500Y-106934000D01*
X164401500Y-108077629D01*
X164623541Y-108198914D01*
X165129634Y-107959389D01*
X165505541Y-107544423D01*
X165666404Y-107156039D01*
X165544415Y-106934000D01*
X164401500Y-106934000D01*
X164147500Y-106934000D01*
X163004585Y-106934000D01*
X162882596Y-107156039D01*
X158063360Y-107156039D01*
X158089250Y-107093691D01*
X158089748Y-106522813D01*
X158062952Y-106457961D01*
X162882596Y-106457961D01*
X163004585Y-106680000D01*
X164147500Y-106680000D01*
X164147500Y-105536371D01*
X164401500Y-105536371D01*
X164401500Y-106680000D01*
X165544415Y-106680000D01*
X165666404Y-106457961D01*
X165505541Y-106069577D01*
X165129634Y-105654611D01*
X164623541Y-105415086D01*
X164401500Y-105536371D01*
X164147500Y-105536371D01*
X163925459Y-105415086D01*
X163419366Y-105654611D01*
X163043459Y-106069577D01*
X162882596Y-106457961D01*
X158062952Y-106457961D01*
X157871743Y-105995200D01*
X157468423Y-105591176D01*
X156941191Y-105372250D01*
X156370313Y-105371752D01*
X155842700Y-105589757D01*
X155438676Y-105993077D01*
X155417116Y-106045000D01*
X152903866Y-106045000D01*
X152880662Y-105921683D01*
X152741590Y-105705559D01*
X152529390Y-105560569D01*
X152289500Y-105511990D01*
X152289500Y-104918500D01*
X152286493Y-104903385D01*
X152231497Y-104626896D01*
X152066316Y-104379685D01*
X151033815Y-103347185D01*
X151021842Y-103339185D01*
X150786605Y-103182004D01*
X150495000Y-103124000D01*
X145349631Y-103124000D01*
X142811500Y-100585870D01*
X142811500Y-98615500D01*
X142753496Y-98323895D01*
X142738676Y-98301715D01*
X142588315Y-98076684D01*
X141925815Y-97414185D01*
X141881710Y-97384715D01*
X141678605Y-97249004D01*
X141387000Y-97191000D01*
X140481618Y-97191000D01*
X140289147Y-96902946D01*
X139959974Y-96683000D01*
X140289147Y-96463054D01*
X140611054Y-95981285D01*
X140724093Y-95413000D01*
X140611054Y-94844715D01*
X140289147Y-94362946D01*
X139959974Y-94143000D01*
X140289147Y-93923054D01*
X140611054Y-93441285D01*
X140724093Y-92873000D01*
X140611054Y-92304715D01*
X140289147Y-91822946D01*
X139959974Y-91603000D01*
X140289147Y-91383054D01*
X140611054Y-90901285D01*
X140724093Y-90333000D01*
X140611054Y-89764715D01*
X140289147Y-89282946D01*
X139959974Y-89063000D01*
X140289147Y-88843054D01*
X140611054Y-88361285D01*
X140724093Y-87793000D01*
X140611054Y-87224715D01*
X140289147Y-86742946D01*
X139959974Y-86523000D01*
X140289147Y-86303054D01*
X140611054Y-85821285D01*
X140724093Y-85253000D01*
X140611054Y-84684715D01*
X140289147Y-84202946D01*
X139959974Y-83983000D01*
X140289147Y-83763054D01*
X140481618Y-83475000D01*
X141922500Y-83475000D01*
X141922500Y-96329500D01*
X141980504Y-96621105D01*
X142104505Y-96806685D01*
X142145685Y-96868315D01*
X147226185Y-101948815D01*
X147473395Y-102113996D01*
X147765000Y-102172000D01*
X151322882Y-102172000D01*
X151515353Y-102460054D01*
X151997122Y-102781961D01*
X152565407Y-102895000D01*
X152623593Y-102895000D01*
X153191878Y-102781961D01*
X153673647Y-102460054D01*
X153995554Y-101978285D01*
X154108593Y-101410000D01*
X153995554Y-100841715D01*
X153673647Y-100359946D01*
X153344474Y-100140000D01*
X153673647Y-99920054D01*
X153995554Y-99438285D01*
X154108593Y-98870000D01*
X153995554Y-98301715D01*
X153673647Y-97819946D01*
X153332947Y-97592298D01*
X153475858Y-97525183D01*
X153866145Y-97096924D01*
X154035976Y-96686890D01*
X153914655Y-96457000D01*
X152721500Y-96457000D01*
X152721500Y-96477000D01*
X152467500Y-96477000D01*
X152467500Y-96457000D01*
X151274345Y-96457000D01*
X151153024Y-96686890D01*
X151322855Y-97096924D01*
X151713142Y-97525183D01*
X151856053Y-97592298D01*
X151515353Y-97819946D01*
X151322882Y-98108000D01*
X149033130Y-98108000D01*
X147701000Y-96775870D01*
X147701000Y-92940000D01*
X151097060Y-92940000D01*
X151097060Y-94640000D01*
X151141338Y-94875317D01*
X151280410Y-95091441D01*
X151492610Y-95236431D01*
X151600607Y-95258301D01*
X151322855Y-95563076D01*
X151153024Y-95973110D01*
X151274345Y-96203000D01*
X152467500Y-96203000D01*
X152467500Y-96183000D01*
X152721500Y-96183000D01*
X152721500Y-96203000D01*
X153914655Y-96203000D01*
X154035976Y-95973110D01*
X153866145Y-95563076D01*
X153589999Y-95260063D01*
X153679817Y-95243162D01*
X153895941Y-95104090D01*
X154040931Y-94891890D01*
X154091940Y-94640000D01*
X154091940Y-92940000D01*
X154047662Y-92704683D01*
X153908590Y-92488559D01*
X153696390Y-92343569D01*
X153444500Y-92292560D01*
X151744500Y-92292560D01*
X151509183Y-92336838D01*
X151293059Y-92475910D01*
X151148069Y-92688110D01*
X151097060Y-92940000D01*
X147701000Y-92940000D01*
X147701000Y-82335392D01*
X148064514Y-82335392D01*
X148310817Y-82859858D01*
X148739076Y-83250145D01*
X149149110Y-83419976D01*
X149379000Y-83298655D01*
X149379000Y-82105500D01*
X148185181Y-82105500D01*
X148064514Y-82335392D01*
X147701000Y-82335392D01*
X147701000Y-81621608D01*
X148064514Y-81621608D01*
X148185181Y-81851500D01*
X149379000Y-81851500D01*
X149379000Y-80658345D01*
X149149110Y-80537024D01*
X148739076Y-80706855D01*
X148310817Y-81097142D01*
X148064514Y-81621608D01*
X147701000Y-81621608D01*
X147701000Y-76263500D01*
X147642996Y-75971895D01*
X147477815Y-75724685D01*
X146307315Y-74554185D01*
X146219312Y-74495383D01*
X146060105Y-74389004D01*
X145768500Y-74331000D01*
X140481618Y-74331000D01*
X140289147Y-74042946D01*
X140247548Y-74015150D01*
X140295317Y-74006162D01*
X140511441Y-73867090D01*
X140656431Y-73654890D01*
X140707440Y-73403000D01*
X140707440Y-73315000D01*
X155222370Y-73315000D01*
X156364000Y-74456630D01*
X156364000Y-80706882D01*
X156075946Y-80899353D01*
X155856000Y-81228526D01*
X155636054Y-80899353D01*
X155154285Y-80577446D01*
X154586000Y-80464407D01*
X154017715Y-80577446D01*
X153535946Y-80899353D01*
X153316000Y-81228526D01*
X153096054Y-80899353D01*
X152614285Y-80577446D01*
X152046000Y-80464407D01*
X151477715Y-80577446D01*
X150995946Y-80899353D01*
X150768298Y-81240053D01*
X150701183Y-81097142D01*
X150272924Y-80706855D01*
X149862890Y-80537024D01*
X149633000Y-80658345D01*
X149633000Y-81851500D01*
X149653000Y-81851500D01*
X149653000Y-82105500D01*
X149633000Y-82105500D01*
X149633000Y-83298655D01*
X149862890Y-83419976D01*
X150272924Y-83250145D01*
X150701183Y-82859858D01*
X150768298Y-82716947D01*
X150995946Y-83057647D01*
X151477715Y-83379554D01*
X152046000Y-83492593D01*
X152614285Y-83379554D01*
X153096054Y-83057647D01*
X153316000Y-82728474D01*
X153535946Y-83057647D01*
X154017715Y-83379554D01*
X154586000Y-83492593D01*
X155154285Y-83379554D01*
X155636054Y-83057647D01*
X155856000Y-82728474D01*
X156075946Y-83057647D01*
X156557715Y-83379554D01*
X157126000Y-83492593D01*
X157694285Y-83379554D01*
X158176054Y-83057647D01*
X158396000Y-82728474D01*
X158615946Y-83057647D01*
X159097715Y-83379554D01*
X159666000Y-83492593D01*
X160234285Y-83379554D01*
X160716054Y-83057647D01*
X160743850Y-83016048D01*
X160752838Y-83063817D01*
X160891910Y-83279941D01*
X161104110Y-83424931D01*
X161356000Y-83475940D01*
X163056000Y-83475940D01*
X163291317Y-83431662D01*
X163507441Y-83292590D01*
X163652431Y-83080390D01*
X163703440Y-82828500D01*
X163703440Y-81128500D01*
X163659162Y-80893183D01*
X163520090Y-80677059D01*
X163307890Y-80532069D01*
X163056000Y-80481060D01*
X161356000Y-80481060D01*
X161120683Y-80525338D01*
X160904559Y-80664410D01*
X160759569Y-80876610D01*
X160745914Y-80944041D01*
X160716054Y-80899353D01*
X160234285Y-80577446D01*
X159666000Y-80464407D01*
X159097715Y-80577446D01*
X158615946Y-80899353D01*
X158396000Y-81228526D01*
X158176054Y-80899353D01*
X157888000Y-80706882D01*
X157888000Y-74141000D01*
X157829996Y-73849395D01*
X157664815Y-73602185D01*
X156076815Y-72014185D01*
X155829605Y-71849004D01*
X155538000Y-71791000D01*
X140707440Y-71791000D01*
X140707440Y-71703000D01*
X140663162Y-71467683D01*
X140524090Y-71251559D01*
X140311890Y-71106569D01*
X140060000Y-71055560D01*
X138360000Y-71055560D01*
X138124683Y-71099838D01*
X137908559Y-71238910D01*
X137763569Y-71451110D01*
X137712560Y-71703000D01*
X137712560Y-73403000D01*
X137756838Y-73638317D01*
X137895910Y-73854441D01*
X138108110Y-73999431D01*
X138175541Y-74013086D01*
X138130853Y-74042946D01*
X137808946Y-74524715D01*
X137695907Y-75093000D01*
X115004202Y-75093000D01*
X114911054Y-74624715D01*
X114589147Y-74142946D01*
X114547548Y-74115150D01*
X114595317Y-74106162D01*
X114811441Y-73967090D01*
X114956431Y-73754890D01*
X115007440Y-73503000D01*
X115007440Y-71803000D01*
X114963162Y-71567683D01*
X114824090Y-71351559D01*
X114611890Y-71206569D01*
X114360000Y-71155560D01*
X112660000Y-71155560D01*
X112424683Y-71199838D01*
X112208559Y-71338910D01*
X112063569Y-71551110D01*
X112012560Y-71803000D01*
X112012560Y-73503000D01*
X112056838Y-73738317D01*
X112195910Y-73954441D01*
X112408110Y-74099431D01*
X112475541Y-74113086D01*
X112430853Y-74142946D01*
X112108946Y-74624715D01*
X111995907Y-75193000D01*
X112108946Y-75761285D01*
X112430853Y-76243054D01*
X112760026Y-76463000D01*
X112430853Y-76682946D01*
X112108946Y-77164715D01*
X111995907Y-77733000D01*
X112108946Y-78301285D01*
X112430853Y-78783054D01*
X112760026Y-79003000D01*
X112430853Y-79222946D01*
X112108946Y-79704715D01*
X111995907Y-80273000D01*
X112108946Y-80841285D01*
X112430853Y-81323054D01*
X112760026Y-81543000D01*
X112430853Y-81762946D01*
X112108946Y-82244715D01*
X112004488Y-82769858D01*
X109855000Y-80620370D01*
X109855000Y-74803000D01*
X109796996Y-74511395D01*
X109631815Y-74264185D01*
X105988815Y-70621185D01*
X105741605Y-70456004D01*
X105450000Y-70398000D01*
X104419639Y-70398000D01*
X104396725Y-70342543D01*
X103990595Y-69935703D01*
X103459689Y-69715252D01*
X102884833Y-69714750D01*
X102353543Y-69934275D01*
X101946703Y-70340405D01*
X101726252Y-70871311D01*
X101725750Y-71446167D01*
X101945275Y-71977457D01*
X102351405Y-72384297D01*
X102882311Y-72604748D01*
X103457167Y-72605250D01*
X103988457Y-72385725D01*
X104395297Y-71979595D01*
X104419212Y-71922000D01*
X105134370Y-71922000D01*
X108331000Y-75118630D01*
X108331000Y-80936000D01*
X108389004Y-81227605D01*
X108491581Y-81381122D01*
X108554185Y-81474815D01*
X112068321Y-84988952D01*
X111995907Y-85353000D01*
X112108946Y-85921285D01*
X112430853Y-86403054D01*
X112760026Y-86623000D01*
X112430853Y-86842946D01*
X112238382Y-87131000D01*
X111259130Y-87131000D01*
X103218315Y-79090185D01*
X102971105Y-78925004D01*
X102679500Y-78867000D01*
X95182366Y-78867000D01*
X95159162Y-78743683D01*
X95020090Y-78527559D01*
X94807890Y-78382569D01*
X94568000Y-78333990D01*
X94568000Y-74883000D01*
X94526624Y-74674988D01*
X97335617Y-74674988D01*
X97410980Y-74922144D01*
X97951834Y-75116916D01*
X98526055Y-75089886D01*
X98931020Y-74922144D01*
X99006383Y-74674988D01*
X98171000Y-73839605D01*
X97335617Y-74674988D01*
X94526624Y-74674988D01*
X94509996Y-74591395D01*
X94403895Y-74432604D01*
X94344815Y-74344184D01*
X94137815Y-74137185D01*
X93890605Y-73972004D01*
X93686405Y-73931386D01*
X93611894Y-73751057D01*
X93302213Y-73440834D01*
X96714084Y-73440834D01*
X96741114Y-74015055D01*
X96908856Y-74420020D01*
X97156012Y-74495383D01*
X97991395Y-73660000D01*
X98350605Y-73660000D01*
X99185988Y-74495383D01*
X99433144Y-74420020D01*
X99627916Y-73879166D01*
X99600886Y-73304945D01*
X99433144Y-72899980D01*
X99185988Y-72824617D01*
X98350605Y-73660000D01*
X97991395Y-73660000D01*
X97156012Y-72824617D01*
X96908856Y-72899980D01*
X96714084Y-73440834D01*
X93302213Y-73440834D01*
X93152363Y-73290722D01*
X92551648Y-73041284D01*
X91901205Y-73040716D01*
X91300057Y-73289106D01*
X90839722Y-73748637D01*
X90590284Y-74349352D01*
X90589716Y-74999795D01*
X90838106Y-75600943D01*
X91297637Y-76061278D01*
X91898352Y-76310716D01*
X92548795Y-76311284D01*
X93044000Y-76106669D01*
X93044000Y-78333818D01*
X92820683Y-78375838D01*
X92604559Y-78514910D01*
X92459569Y-78727110D01*
X92452809Y-78760490D01*
X92394327Y-78619301D01*
X92215698Y-78440673D01*
X91982309Y-78344000D01*
X91391750Y-78344000D01*
X91233000Y-78502750D01*
X91233000Y-79502000D01*
X91253000Y-79502000D01*
X91253000Y-79756000D01*
X91233000Y-79756000D01*
X91233000Y-80755250D01*
X91391750Y-80914000D01*
X91982309Y-80914000D01*
X92215698Y-80817327D01*
X92394327Y-80638699D01*
X92450654Y-80502713D01*
X92452838Y-80514317D01*
X92591910Y-80730441D01*
X92804110Y-80875431D01*
X93056000Y-80926440D01*
X94556000Y-80926440D01*
X94791317Y-80882162D01*
X95007441Y-80743090D01*
X95152431Y-80530890D01*
X95180759Y-80391000D01*
X102363870Y-80391000D01*
X110404685Y-88431815D01*
X110651895Y-88596996D01*
X110943500Y-88655000D01*
X112238382Y-88655000D01*
X112430853Y-88943054D01*
X112760026Y-89163000D01*
X112430853Y-89382946D01*
X112108946Y-89864715D01*
X111995907Y-90433000D01*
X112108946Y-91001285D01*
X112430853Y-91483054D01*
X112760026Y-91703000D01*
X112430853Y-91922946D01*
X112263839Y-92172900D01*
X109814412Y-92172900D01*
X108496100Y-90854588D01*
X108496100Y-88900000D01*
X108435196Y-88593815D01*
X108261756Y-88334244D01*
X105848756Y-85921244D01*
X105589185Y-85747804D01*
X105283000Y-85686900D01*
X105017697Y-85686900D01*
X105001662Y-85601683D01*
X104862590Y-85385559D01*
X104650390Y-85240569D01*
X104398500Y-85189560D01*
X102898500Y-85189560D01*
X102663183Y-85233838D01*
X102447059Y-85372910D01*
X102302069Y-85585110D01*
X102299419Y-85598197D01*
X102162590Y-85385559D01*
X101950390Y-85240569D01*
X101698500Y-85189560D01*
X100198500Y-85189560D01*
X99963183Y-85233838D01*
X99747059Y-85372910D01*
X99602069Y-85585110D01*
X99600795Y-85591400D01*
X98080940Y-85591400D01*
X98080940Y-85391500D01*
X98036662Y-85156183D01*
X97897590Y-84940059D01*
X97685390Y-84795069D01*
X97433500Y-84744060D01*
X95733500Y-84744060D01*
X95498183Y-84788338D01*
X95282059Y-84927410D01*
X95137069Y-85139610D01*
X95086060Y-85391500D01*
X95086060Y-87391500D01*
X95130338Y-87626817D01*
X95269410Y-87842941D01*
X95481610Y-87987931D01*
X95733500Y-88038940D01*
X97433500Y-88038940D01*
X97668817Y-87994662D01*
X97884941Y-87855590D01*
X98029931Y-87643390D01*
X98080940Y-87391500D01*
X98080940Y-87191600D01*
X99561334Y-87191600D01*
X99595338Y-87372317D01*
X99734410Y-87588441D01*
X99946610Y-87733431D01*
X100198500Y-87784440D01*
X101698500Y-87784440D01*
X101933817Y-87740162D01*
X102149941Y-87601090D01*
X102294931Y-87388890D01*
X102297581Y-87375803D01*
X102434410Y-87588441D01*
X102646610Y-87733431D01*
X102898500Y-87784440D01*
X104398500Y-87784440D01*
X104633817Y-87740162D01*
X104849941Y-87601090D01*
X104994931Y-87388890D01*
X105004774Y-87340286D01*
X106895900Y-89231412D01*
X106895900Y-91186000D01*
X106956804Y-91492185D01*
X107130244Y-91751756D01*
X108917244Y-93538756D01*
X109176815Y-93712196D01*
X109483000Y-93773100D01*
X112263839Y-93773100D01*
X112430853Y-94023054D01*
X112760026Y-94243000D01*
X112430853Y-94462946D01*
X112414112Y-94488000D01*
X105088366Y-94488000D01*
X105065162Y-94364683D01*
X104926090Y-94148559D01*
X104713890Y-94003569D01*
X104462000Y-93952560D01*
X102962000Y-93952560D01*
X102726683Y-93996838D01*
X102510559Y-94135910D01*
X102365569Y-94348110D01*
X102362919Y-94361197D01*
X102226090Y-94148559D01*
X102013890Y-94003569D01*
X101762000Y-93952560D01*
X100262000Y-93952560D01*
X100026683Y-93996838D01*
X99810559Y-94135910D01*
X99765402Y-94202000D01*
X98271440Y-94202000D01*
X98271440Y-93964000D01*
X98227162Y-93728683D01*
X98088090Y-93512559D01*
X97875890Y-93367569D01*
X97624000Y-93316560D01*
X95924000Y-93316560D01*
X95688683Y-93360838D01*
X95472559Y-93499910D01*
X95327569Y-93712110D01*
X95276560Y-93964000D01*
X95276560Y-95964000D01*
X95320838Y-96199317D01*
X95459910Y-96415441D01*
X95672110Y-96560431D01*
X95924000Y-96611440D01*
X97624000Y-96611440D01*
X97859317Y-96567162D01*
X98075441Y-96428090D01*
X98220431Y-96215890D01*
X98271440Y-95964000D01*
X98271440Y-95726000D01*
X99614560Y-95726000D01*
X99614560Y-95900000D01*
X99658838Y-96135317D01*
X99797910Y-96351441D01*
X100010110Y-96496431D01*
X100262000Y-96547440D01*
X101762000Y-96547440D01*
X101997317Y-96503162D01*
X102213441Y-96364090D01*
X102358431Y-96151890D01*
X102361081Y-96138803D01*
X102497910Y-96351441D01*
X102710110Y-96496431D01*
X102962000Y-96547440D01*
X104462000Y-96547440D01*
X104697317Y-96503162D01*
X104913441Y-96364090D01*
X105058431Y-96151890D01*
X105086759Y-96012000D01*
X112095164Y-96012000D01*
X112108946Y-96081285D01*
X112430853Y-96563054D01*
X112760026Y-96783000D01*
X112430853Y-97002946D01*
X112117108Y-97472500D01*
X95629130Y-97472500D01*
X92900500Y-94743870D01*
X92900500Y-91249750D01*
X95289000Y-91249750D01*
X95289000Y-92090309D01*
X95385673Y-92323698D01*
X95564301Y-92502327D01*
X95797690Y-92599000D01*
X96488250Y-92599000D01*
X96647000Y-92440250D01*
X96647000Y-91091000D01*
X96901000Y-91091000D01*
X96901000Y-92440250D01*
X97059750Y-92599000D01*
X97750310Y-92599000D01*
X97983699Y-92502327D01*
X98162327Y-92323698D01*
X98259000Y-92090309D01*
X98259000Y-91249750D01*
X98100250Y-91091000D01*
X96901000Y-91091000D01*
X96647000Y-91091000D01*
X95447750Y-91091000D01*
X95289000Y-91249750D01*
X92900500Y-91249750D01*
X92900500Y-90233500D01*
X92842496Y-89941895D01*
X92772869Y-89837691D01*
X95289000Y-89837691D01*
X95289000Y-90678250D01*
X95447750Y-90837000D01*
X96647000Y-90837000D01*
X96647000Y-89487750D01*
X96901000Y-89487750D01*
X96901000Y-90837000D01*
X98100250Y-90837000D01*
X98259000Y-90678250D01*
X98259000Y-89837691D01*
X98162327Y-89604302D01*
X97983699Y-89425673D01*
X97750310Y-89329000D01*
X97059750Y-89329000D01*
X96901000Y-89487750D01*
X96647000Y-89487750D01*
X96488250Y-89329000D01*
X95797690Y-89329000D01*
X95564301Y-89425673D01*
X95385673Y-89604302D01*
X95289000Y-89837691D01*
X92772869Y-89837691D01*
X92734057Y-89779605D01*
X92677315Y-89694684D01*
X91931815Y-88949185D01*
X91922639Y-88943054D01*
X91684605Y-88784004D01*
X91393000Y-88726000D01*
X89719221Y-88726000D01*
X89651894Y-88563057D01*
X89192363Y-88102722D01*
X88591648Y-87853284D01*
X87941205Y-87852716D01*
X87340057Y-88101106D01*
X86879722Y-88560637D01*
X86630284Y-89161352D01*
X86629716Y-89811795D01*
X80847000Y-89811795D01*
X80847000Y-82677250D01*
X95098500Y-82677250D01*
X95098500Y-83517809D01*
X95195173Y-83751198D01*
X95373801Y-83929827D01*
X95607190Y-84026500D01*
X96297750Y-84026500D01*
X96456500Y-83867750D01*
X96456500Y-82518500D01*
X96710500Y-82518500D01*
X96710500Y-83867750D01*
X96869250Y-84026500D01*
X97559810Y-84026500D01*
X97793199Y-83929827D01*
X97971827Y-83751198D01*
X98068500Y-83517809D01*
X98068500Y-82677250D01*
X97909750Y-82518500D01*
X96710500Y-82518500D01*
X96456500Y-82518500D01*
X95257250Y-82518500D01*
X95098500Y-82677250D01*
X80847000Y-82677250D01*
X80847000Y-81265191D01*
X95098500Y-81265191D01*
X95098500Y-82105750D01*
X95257250Y-82264500D01*
X96456500Y-82264500D01*
X96456500Y-80915250D01*
X96710500Y-80915250D01*
X96710500Y-82264500D01*
X97909750Y-82264500D01*
X98068500Y-82105750D01*
X98068500Y-81265191D01*
X97971827Y-81031802D01*
X97793199Y-80853173D01*
X97559810Y-80756500D01*
X96869250Y-80756500D01*
X96710500Y-80915250D01*
X96456500Y-80915250D01*
X96297750Y-80756500D01*
X95607190Y-80756500D01*
X95373801Y-80853173D01*
X95195173Y-81031802D01*
X95098500Y-81265191D01*
X80847000Y-81265191D01*
X80847000Y-79914750D01*
X89721000Y-79914750D01*
X89721000Y-80405310D01*
X89817673Y-80638699D01*
X89996302Y-80817327D01*
X90229691Y-80914000D01*
X90820250Y-80914000D01*
X90979000Y-80755250D01*
X90979000Y-79756000D01*
X89879750Y-79756000D01*
X89721000Y-79914750D01*
X80847000Y-79914750D01*
X80847000Y-78852690D01*
X89721000Y-78852690D01*
X89721000Y-79343250D01*
X89879750Y-79502000D01*
X90979000Y-79502000D01*
X90979000Y-78502750D01*
X90820250Y-78344000D01*
X90229691Y-78344000D01*
X89996302Y-78440673D01*
X89817673Y-78619301D01*
X89721000Y-78852690D01*
X80847000Y-78852690D01*
X80847000Y-74999795D01*
X84089716Y-74999795D01*
X84338106Y-75600943D01*
X84797637Y-76061278D01*
X85398352Y-76310716D01*
X86048795Y-76311284D01*
X86649943Y-76062894D01*
X87110278Y-75603363D01*
X87359716Y-75002648D01*
X87360284Y-74352205D01*
X87111894Y-73751057D01*
X86652363Y-73290722D01*
X86051648Y-73041284D01*
X85401205Y-73040716D01*
X84800057Y-73289106D01*
X84339722Y-73748637D01*
X84090284Y-74349352D01*
X84089716Y-74999795D01*
X80847000Y-74999795D01*
X80847000Y-72645012D01*
X97335617Y-72645012D01*
X98171000Y-73480395D01*
X99006383Y-72645012D01*
X98931020Y-72397856D01*
X98390166Y-72203084D01*
X97815945Y-72230114D01*
X97410980Y-72397856D01*
X97335617Y-72645012D01*
X80847000Y-72645012D01*
X80847000Y-68499795D01*
X84089716Y-68499795D01*
X84338106Y-69100943D01*
X84797637Y-69561278D01*
X85398352Y-69810716D01*
X86048795Y-69811284D01*
X86649943Y-69562894D01*
X87110278Y-69103363D01*
X87359716Y-68502648D01*
X87359718Y-68499795D01*
X90589716Y-68499795D01*
X90838106Y-69100943D01*
X91297637Y-69561278D01*
X91898352Y-69810716D01*
X92548795Y-69811284D01*
X93149943Y-69562894D01*
X93610278Y-69103363D01*
X93675551Y-68946167D01*
X96725750Y-68946167D01*
X96945275Y-69477457D01*
X97351405Y-69884297D01*
X97882311Y-70104748D01*
X98457167Y-70105250D01*
X98988457Y-69885725D01*
X99395297Y-69479595D01*
X99615748Y-68948689D01*
X99616250Y-68373833D01*
X99396725Y-67842543D01*
X98990595Y-67435703D01*
X98459689Y-67215252D01*
X97884833Y-67214750D01*
X97353543Y-67434275D01*
X96946703Y-67840405D01*
X96726252Y-68371311D01*
X96725750Y-68946167D01*
X93675551Y-68946167D01*
X93859716Y-68502648D01*
X93860284Y-67852205D01*
X93611894Y-67251057D01*
X93152363Y-66790722D01*
X92551648Y-66541284D01*
X91901205Y-66540716D01*
X91300057Y-66789106D01*
X90839722Y-67248637D01*
X90590284Y-67849352D01*
X90589716Y-68499795D01*
X87359718Y-68499795D01*
X87360284Y-67852205D01*
X87111894Y-67251057D01*
X86652363Y-66790722D01*
X86051648Y-66541284D01*
X85401205Y-66540716D01*
X84800057Y-66789106D01*
X84339722Y-67248637D01*
X84090284Y-67849352D01*
X84089716Y-68499795D01*
X80847000Y-68499795D01*
X80847000Y-64972000D01*
X165914000Y-64972000D01*
X165914000Y-123242000D01*
X165914000Y-123242000D01*
G37*
X165914000Y-123242000D02*
X80847000Y-123242000D01*
X80847000Y-112083795D01*
X86629716Y-112083795D01*
X86878106Y-112684943D01*
X87337637Y-113145278D01*
X87938352Y-113394716D01*
X88588795Y-113395284D01*
X89189943Y-113146894D01*
X89650278Y-112687363D01*
X89899716Y-112086648D01*
X89900284Y-111436205D01*
X89651894Y-110835057D01*
X89192363Y-110374722D01*
X88591648Y-110125284D01*
X87941205Y-110124716D01*
X87340057Y-110373106D01*
X86879722Y-110832637D01*
X86630284Y-111433352D01*
X86629716Y-112083795D01*
X80847000Y-112083795D01*
X80847000Y-107912532D01*
X87292073Y-107912532D01*
X87390736Y-108179387D01*
X88000461Y-108405908D01*
X88650460Y-108381856D01*
X89139264Y-108179387D01*
X89237927Y-107912532D01*
X88265000Y-106939605D01*
X87292073Y-107912532D01*
X80847000Y-107912532D01*
X80847000Y-106495461D01*
X86619092Y-106495461D01*
X86643144Y-107145460D01*
X86845613Y-107634264D01*
X87112468Y-107732927D01*
X88085395Y-106760000D01*
X88444605Y-106760000D01*
X89417532Y-107732927D01*
X89684387Y-107634264D01*
X89910908Y-107024539D01*
X89886856Y-106374540D01*
X89684387Y-105885736D01*
X89417532Y-105787073D01*
X88444605Y-106760000D01*
X88085395Y-106760000D01*
X87112468Y-105787073D01*
X86845613Y-105885736D01*
X86619092Y-106495461D01*
X80847000Y-106495461D01*
X80847000Y-105607468D01*
X87292073Y-105607468D01*
X88265000Y-106580395D01*
X89237927Y-105607468D01*
X89139264Y-105340613D01*
X88529539Y-105114092D01*
X87879540Y-105138144D01*
X87390736Y-105340613D01*
X87292073Y-105607468D01*
X80847000Y-105607468D01*
X80847000Y-89811795D01*
X86629716Y-89811795D01*
X86878106Y-90412943D01*
X87337637Y-90873278D01*
X87938352Y-91122716D01*
X88588795Y-91123284D01*
X89189943Y-90874894D01*
X89650278Y-90415363D01*
X89718943Y-90250000D01*
X91077370Y-90250000D01*
X91376500Y-90549131D01*
X91376500Y-95059500D01*
X91434504Y-95351105D01*
X91576139Y-95563076D01*
X91599685Y-95598315D01*
X94774685Y-98773315D01*
X95021895Y-98938496D01*
X95313500Y-98996500D01*
X112359656Y-98996500D01*
X112430853Y-99103054D01*
X112760026Y-99323000D01*
X112430853Y-99542946D01*
X112238382Y-99831000D01*
X93733130Y-99831000D01*
X91884500Y-97982370D01*
X91884500Y-97345500D01*
X91826496Y-97053895D01*
X91702495Y-96868315D01*
X91661315Y-96806684D01*
X89832105Y-94977474D01*
X89899716Y-94814648D01*
X89900284Y-94164205D01*
X89651894Y-93563057D01*
X89192363Y-93102722D01*
X88591648Y-92853284D01*
X87941205Y-92852716D01*
X87340057Y-93101106D01*
X86879722Y-93560637D01*
X86630284Y-94161352D01*
X86629716Y-94811795D01*
X86878106Y-95412943D01*
X87337637Y-95873278D01*
X87938352Y-96122716D01*
X88588795Y-96123284D01*
X88754277Y-96054908D01*
X90360500Y-97661131D01*
X90360500Y-98298000D01*
X90418504Y-98589605D01*
X90502291Y-98715000D01*
X90583685Y-98836815D01*
X92878685Y-101131815D01*
X93125895Y-101296996D01*
X93417500Y-101355000D01*
X112238382Y-101355000D01*
X112430853Y-101643054D01*
X112760026Y-101863000D01*
X112430853Y-102082946D01*
X112238382Y-102371000D01*
X90304130Y-102371000D01*
X89027000Y-101093870D01*
X89027000Y-100942221D01*
X89189943Y-100874894D01*
X89650278Y-100415363D01*
X89899716Y-99814648D01*
X89900284Y-99164205D01*
X89651894Y-98563057D01*
X89192363Y-98102722D01*
X88591648Y-97853284D01*
X87941205Y-97852716D01*
X87340057Y-98101106D01*
X86879722Y-98560637D01*
X86630284Y-99161352D01*
X86629716Y-99811795D01*
X86878106Y-100412943D01*
X87337637Y-100873278D01*
X87503000Y-100941943D01*
X87503000Y-101409500D01*
X87561004Y-101701105D01*
X87726185Y-101948315D01*
X89449685Y-103671815D01*
X89696895Y-103836996D01*
X89988500Y-103895000D01*
X112238382Y-103895000D01*
X112430853Y-104183054D01*
X112760026Y-104403000D01*
X112430853Y-104622946D01*
X112108946Y-105104715D01*
X111995907Y-105673000D01*
X112108946Y-106241285D01*
X112430853Y-106723054D01*
X112760026Y-106943000D01*
X112430853Y-107162946D01*
X112238382Y-107451000D01*
X97019000Y-107451000D01*
X96729728Y-107508540D01*
X96727395Y-107509004D01*
X96480184Y-107674185D01*
X94203185Y-109951185D01*
X94038004Y-110198395D01*
X93980000Y-110490000D01*
X93980000Y-115190869D01*
X93172870Y-115998000D01*
X89719221Y-115998000D01*
X89651894Y-115835057D01*
X89192363Y-115374722D01*
X88591648Y-115125284D01*
X87941205Y-115124716D01*
X87340057Y-115373106D01*
X86879722Y-115832637D01*
X86630284Y-116433352D01*
X86629716Y-117083795D01*
X86878106Y-117684943D01*
X87337637Y-118145278D01*
X87938352Y-118394716D01*
X88588795Y-118395284D01*
X89189943Y-118146894D01*
X89650278Y-117687363D01*
X89718943Y-117522000D01*
X93488500Y-117522000D01*
X93780105Y-117463996D01*
X94027315Y-117298815D01*
X95280816Y-116045315D01*
X95422922Y-115832637D01*
X95445996Y-115798105D01*
X95504000Y-115506500D01*
X95504000Y-110805630D01*
X97334631Y-108975000D01*
X112238382Y-108975000D01*
X112430853Y-109263054D01*
X112912622Y-109584961D01*
X113480907Y-109698000D01*
X113539093Y-109698000D01*
X114107378Y-109584961D01*
X114589147Y-109263054D01*
X114911054Y-108781285D01*
X115024093Y-108213000D01*
X115004202Y-108113000D01*
X137695907Y-108113000D01*
X137808946Y-108681285D01*
X138130853Y-109163054D01*
X138612622Y-109484961D01*
X139180907Y-109598000D01*
X139239093Y-109598000D01*
X139807378Y-109484961D01*
X140289147Y-109163054D01*
X140611054Y-108681285D01*
X140724093Y-108113000D01*
X140611054Y-107544715D01*
X140289147Y-107062946D01*
X139948447Y-106835298D01*
X140091358Y-106768183D01*
X140481645Y-106339924D01*
X140651476Y-105929890D01*
X140530155Y-105700000D01*
X139337000Y-105700000D01*
X139337000Y-105720000D01*
X139083000Y-105720000D01*
X139083000Y-105700000D01*
X137889845Y-105700000D01*
X137768524Y-105929890D01*
X137938355Y-106339924D01*
X138328642Y-106768183D01*
X138471553Y-106835298D01*
X138130853Y-107062946D01*
X137808946Y-107544715D01*
X137695907Y-108113000D01*
X115004202Y-108113000D01*
X114911054Y-107644715D01*
X114589147Y-107162946D01*
X114259974Y-106943000D01*
X114589147Y-106723054D01*
X114911054Y-106241285D01*
X115024093Y-105673000D01*
X114911054Y-105104715D01*
X114589147Y-104622946D01*
X114259974Y-104403000D01*
X114589147Y-104183054D01*
X114911054Y-103701285D01*
X115024093Y-103133000D01*
X114911054Y-102564715D01*
X114589147Y-102082946D01*
X114259974Y-101863000D01*
X114589147Y-101643054D01*
X114911054Y-101161285D01*
X115024093Y-100593000D01*
X114911054Y-100024715D01*
X114589147Y-99542946D01*
X114259974Y-99323000D01*
X114589147Y-99103054D01*
X114911054Y-98621285D01*
X115024093Y-98053000D01*
X114911054Y-97484715D01*
X114589147Y-97002946D01*
X114259974Y-96783000D01*
X114589147Y-96563054D01*
X114911054Y-96081285D01*
X115024093Y-95513000D01*
X114911054Y-94944715D01*
X114589147Y-94462946D01*
X114259974Y-94243000D01*
X114589147Y-94023054D01*
X114911054Y-93541285D01*
X115024093Y-92973000D01*
X114911054Y-92404715D01*
X114589147Y-91922946D01*
X114259974Y-91703000D01*
X114589147Y-91483054D01*
X114911054Y-91001285D01*
X115024093Y-90433000D01*
X114911054Y-89864715D01*
X114589147Y-89382946D01*
X114259974Y-89163000D01*
X114589147Y-88943054D01*
X114911054Y-88461285D01*
X115024093Y-87893000D01*
X114911054Y-87324715D01*
X114589147Y-86842946D01*
X114259974Y-86623000D01*
X114589147Y-86403054D01*
X114911054Y-85921285D01*
X115024093Y-85353000D01*
X114911054Y-84784715D01*
X114589147Y-84302946D01*
X114259974Y-84083000D01*
X114589147Y-83863054D01*
X114911054Y-83381285D01*
X115024093Y-82813000D01*
X114911054Y-82244715D01*
X114589147Y-81762946D01*
X114259974Y-81543000D01*
X114589147Y-81323054D01*
X114911054Y-80841285D01*
X115024093Y-80273000D01*
X114911054Y-79704715D01*
X114589147Y-79222946D01*
X114259974Y-79003000D01*
X114589147Y-78783054D01*
X114911054Y-78301285D01*
X115024093Y-77733000D01*
X114911054Y-77164715D01*
X114589147Y-76682946D01*
X114259974Y-76463000D01*
X114589147Y-76243054D01*
X114911054Y-75761285D01*
X115024093Y-75193000D01*
X115004202Y-75093000D01*
X137695907Y-75093000D01*
X137808946Y-75661285D01*
X138130853Y-76143054D01*
X138460026Y-76363000D01*
X138130853Y-76582946D01*
X137808946Y-77064715D01*
X137695907Y-77633000D01*
X137808946Y-78201285D01*
X138130853Y-78683054D01*
X138460026Y-78903000D01*
X138130853Y-79122946D01*
X137808946Y-79604715D01*
X137695907Y-80173000D01*
X137808946Y-80741285D01*
X138130853Y-81223054D01*
X138460026Y-81443000D01*
X138130853Y-81662946D01*
X137808946Y-82144715D01*
X137695907Y-82713000D01*
X137808946Y-83281285D01*
X138130853Y-83763054D01*
X138460026Y-83983000D01*
X138130853Y-84202946D01*
X137808946Y-84684715D01*
X137695907Y-85253000D01*
X137808946Y-85821285D01*
X138130853Y-86303054D01*
X138460026Y-86523000D01*
X138130853Y-86742946D01*
X137808946Y-87224715D01*
X137695907Y-87793000D01*
X137808946Y-88361285D01*
X138130853Y-88843054D01*
X138460026Y-89063000D01*
X138130853Y-89282946D01*
X137808946Y-89764715D01*
X137695907Y-90333000D01*
X137808946Y-90901285D01*
X138130853Y-91383054D01*
X138460026Y-91603000D01*
X138130853Y-91822946D01*
X137808946Y-92304715D01*
X137695907Y-92873000D01*
X137808946Y-93441285D01*
X138130853Y-93923054D01*
X138460026Y-94143000D01*
X138130853Y-94362946D01*
X137808946Y-94844715D01*
X137695907Y-95413000D01*
X137808946Y-95981285D01*
X138130853Y-96463054D01*
X138460026Y-96683000D01*
X138130853Y-96902946D01*
X137808946Y-97384715D01*
X137695907Y-97953000D01*
X137808946Y-98521285D01*
X138130853Y-99003054D01*
X138460026Y-99223000D01*
X138130853Y-99442946D01*
X137808946Y-99924715D01*
X137695907Y-100493000D01*
X137808946Y-101061285D01*
X138130853Y-101543054D01*
X138460026Y-101763000D01*
X138130853Y-101982946D01*
X137808946Y-102464715D01*
X137695907Y-103033000D01*
X137808946Y-103601285D01*
X138130853Y-104083054D01*
X138471553Y-104310702D01*
X138328642Y-104377817D01*
X137938355Y-104806076D01*
X137768524Y-105216110D01*
X137889845Y-105446000D01*
X139083000Y-105446000D01*
X139083000Y-105426000D01*
X139337000Y-105426000D01*
X139337000Y-105446000D01*
X140530155Y-105446000D01*
X140651476Y-105216110D01*
X140481645Y-104806076D01*
X140091358Y-104377817D01*
X139948447Y-104310702D01*
X140289147Y-104083054D01*
X140456161Y-103833100D01*
X140852388Y-103833100D01*
X141947900Y-104928612D01*
X141947900Y-108000800D01*
X142008804Y-108306985D01*
X142182244Y-108566556D01*
X148104244Y-114488556D01*
X148363815Y-114661996D01*
X148670000Y-114722900D01*
X150502387Y-114722900D01*
X150537238Y-114908117D01*
X150676310Y-115124241D01*
X150888510Y-115269231D01*
X151109100Y-115313902D01*
X151109100Y-119810239D01*
X150859146Y-119977253D01*
X150831350Y-120018852D01*
X150822362Y-119971083D01*
X150683290Y-119754959D01*
X150471090Y-119609969D01*
X150219200Y-119558960D01*
X148519200Y-119558960D01*
X148283883Y-119603238D01*
X148067759Y-119742310D01*
X147922769Y-119954510D01*
X147871760Y-120206400D01*
X147871760Y-121906400D01*
X147916038Y-122141717D01*
X148055110Y-122357841D01*
X148267310Y-122502831D01*
X148519200Y-122553840D01*
X150219200Y-122553840D01*
X150454517Y-122509562D01*
X150670641Y-122370490D01*
X150815631Y-122158290D01*
X150829286Y-122090859D01*
X150859146Y-122135547D01*
X151340915Y-122457454D01*
X151909200Y-122570493D01*
X152477485Y-122457454D01*
X152959254Y-122135547D01*
X153179200Y-121806374D01*
X153399146Y-122135547D01*
X153880915Y-122457454D01*
X154449200Y-122570493D01*
X155017485Y-122457454D01*
X155499254Y-122135547D01*
X155726902Y-121794847D01*
X155794017Y-121937758D01*
X156222276Y-122328045D01*
X156632310Y-122497876D01*
X156862200Y-122376555D01*
X156862200Y-121183400D01*
X157116200Y-121183400D01*
X157116200Y-122376555D01*
X157346090Y-122497876D01*
X157756124Y-122328045D01*
X158184383Y-121937758D01*
X158430686Y-121413292D01*
X158310019Y-121183400D01*
X157116200Y-121183400D01*
X156862200Y-121183400D01*
X156842200Y-121183400D01*
X156842200Y-120929400D01*
X156862200Y-120929400D01*
X156862200Y-119736245D01*
X157116200Y-119736245D01*
X157116200Y-120929400D01*
X158310019Y-120929400D01*
X158430686Y-120699508D01*
X158184383Y-120175042D01*
X157756124Y-119784755D01*
X157346090Y-119614924D01*
X157116200Y-119736245D01*
X156862200Y-119736245D01*
X156632310Y-119614924D01*
X156222276Y-119784755D01*
X155794017Y-120175042D01*
X155726902Y-120317953D01*
X155499254Y-119977253D01*
X155017485Y-119655346D01*
X154449200Y-119542307D01*
X153880915Y-119655346D01*
X153399146Y-119977253D01*
X153179200Y-120306426D01*
X152959254Y-119977253D01*
X152709300Y-119810239D01*
X152709300Y-115254352D01*
X152891841Y-115136890D01*
X153036831Y-114924690D01*
X153087840Y-114672800D01*
X153087840Y-113172800D01*
X153043562Y-112937483D01*
X152904490Y-112721359D01*
X152692290Y-112576369D01*
X152679203Y-112573719D01*
X152891841Y-112436890D01*
X153036831Y-112224690D01*
X153087840Y-111972800D01*
X153087840Y-110472800D01*
X153043562Y-110237483D01*
X152904490Y-110021359D01*
X152692290Y-109876369D01*
X152440400Y-109825360D01*
X151140400Y-109825360D01*
X150905083Y-109869638D01*
X150688959Y-110008710D01*
X150605556Y-110130775D01*
X150461770Y-110071070D01*
X150072737Y-110070731D01*
X149713188Y-110219293D01*
X149437860Y-110494141D01*
X149288670Y-110853430D01*
X149288331Y-111242463D01*
X149436893Y-111602012D01*
X149711741Y-111877340D01*
X150071030Y-112026530D01*
X150460063Y-112026869D01*
X150469669Y-112022900D01*
X150502387Y-112022900D01*
X150537238Y-112208117D01*
X150676310Y-112424241D01*
X150888510Y-112569231D01*
X150901597Y-112571881D01*
X150688959Y-112708710D01*
X150543969Y-112920910D01*
X150503106Y-113122700D01*
X149001412Y-113122700D01*
X143548100Y-107669388D01*
X143548100Y-104597200D01*
X143487196Y-104291015D01*
X143313756Y-104031444D01*
X141749556Y-102467244D01*
X141489985Y-102293804D01*
X141183800Y-102232900D01*
X140456161Y-102232900D01*
X140289147Y-101982946D01*
X139959974Y-101763000D01*
X140289147Y-101543054D01*
X140611054Y-101061285D01*
X140724093Y-100493000D01*
X140611054Y-99924715D01*
X140289147Y-99442946D01*
X139959974Y-99223000D01*
X140289147Y-99003054D01*
X140481618Y-98715000D01*
X141071370Y-98715000D01*
X141287500Y-98931131D01*
X141287500Y-100901500D01*
X141345504Y-101193105D01*
X141453679Y-101355000D01*
X141510685Y-101440315D01*
X144495184Y-104424815D01*
X144742395Y-104589996D01*
X145034000Y-104648000D01*
X150179370Y-104648000D01*
X150765500Y-105234131D01*
X150765500Y-105511818D01*
X150542183Y-105553838D01*
X150326059Y-105692910D01*
X150181069Y-105905110D01*
X150178419Y-105918197D01*
X150041590Y-105705559D01*
X149829390Y-105560569D01*
X149577500Y-105509560D01*
X148077500Y-105509560D01*
X147842183Y-105553838D01*
X147626059Y-105692910D01*
X147497626Y-105880878D01*
X147468259Y-105851460D01*
X147108970Y-105702270D01*
X146719937Y-105701931D01*
X146360388Y-105850493D01*
X146085060Y-106125341D01*
X145935870Y-106484630D01*
X145935531Y-106873663D01*
X146084093Y-107233212D01*
X146358941Y-107508540D01*
X146718230Y-107657730D01*
X147107263Y-107658069D01*
X147230618Y-107607100D01*
X147458303Y-107607100D01*
X147474338Y-107692317D01*
X147613410Y-107908441D01*
X147825610Y-108053431D01*
X148077500Y-108104440D01*
X149577500Y-108104440D01*
X149812817Y-108060162D01*
X150028941Y-107921090D01*
X150173931Y-107708890D01*
X150176581Y-107695803D01*
X150313410Y-107908441D01*
X150525610Y-108053431D01*
X150777500Y-108104440D01*
X152277500Y-108104440D01*
X152512817Y-108060162D01*
X152728941Y-107921090D01*
X152873931Y-107708890D01*
X152902259Y-107569000D01*
X155416680Y-107569000D01*
X155437257Y-107618800D01*
X155840577Y-108022824D01*
X156367809Y-108241750D01*
X156938687Y-108242248D01*
X157466300Y-108024243D01*
X157870324Y-107620923D01*
X158063360Y-107156039D01*
X162882596Y-107156039D01*
X163043459Y-107544423D01*
X163419366Y-107959389D01*
X163925459Y-108198914D01*
X164147500Y-108077629D01*
X164147500Y-106934000D01*
X164401500Y-106934000D01*
X164401500Y-108077629D01*
X164623541Y-108198914D01*
X165129634Y-107959389D01*
X165505541Y-107544423D01*
X165666404Y-107156039D01*
X165544415Y-106934000D01*
X164401500Y-106934000D01*
X164147500Y-106934000D01*
X163004585Y-106934000D01*
X162882596Y-107156039D01*
X158063360Y-107156039D01*
X158089250Y-107093691D01*
X158089748Y-106522813D01*
X158062952Y-106457961D01*
X162882596Y-106457961D01*
X163004585Y-106680000D01*
X164147500Y-106680000D01*
X164147500Y-105536371D01*
X164401500Y-105536371D01*
X164401500Y-106680000D01*
X165544415Y-106680000D01*
X165666404Y-106457961D01*
X165505541Y-106069577D01*
X165129634Y-105654611D01*
X164623541Y-105415086D01*
X164401500Y-105536371D01*
X164147500Y-105536371D01*
X163925459Y-105415086D01*
X163419366Y-105654611D01*
X163043459Y-106069577D01*
X162882596Y-106457961D01*
X158062952Y-106457961D01*
X157871743Y-105995200D01*
X157468423Y-105591176D01*
X156941191Y-105372250D01*
X156370313Y-105371752D01*
X155842700Y-105589757D01*
X155438676Y-105993077D01*
X155417116Y-106045000D01*
X152903866Y-106045000D01*
X152880662Y-105921683D01*
X152741590Y-105705559D01*
X152529390Y-105560569D01*
X152289500Y-105511990D01*
X152289500Y-104918500D01*
X152286493Y-104903385D01*
X152231497Y-104626896D01*
X152066316Y-104379685D01*
X151033815Y-103347185D01*
X151021842Y-103339185D01*
X150786605Y-103182004D01*
X150495000Y-103124000D01*
X145349631Y-103124000D01*
X142811500Y-100585870D01*
X142811500Y-98615500D01*
X142753496Y-98323895D01*
X142738676Y-98301715D01*
X142588315Y-98076684D01*
X141925815Y-97414185D01*
X141881710Y-97384715D01*
X141678605Y-97249004D01*
X141387000Y-97191000D01*
X140481618Y-97191000D01*
X140289147Y-96902946D01*
X139959974Y-96683000D01*
X140289147Y-96463054D01*
X140611054Y-95981285D01*
X140724093Y-95413000D01*
X140611054Y-94844715D01*
X140289147Y-94362946D01*
X139959974Y-94143000D01*
X140289147Y-93923054D01*
X140611054Y-93441285D01*
X140724093Y-92873000D01*
X140611054Y-92304715D01*
X140289147Y-91822946D01*
X139959974Y-91603000D01*
X140289147Y-91383054D01*
X140611054Y-90901285D01*
X140724093Y-90333000D01*
X140611054Y-89764715D01*
X140289147Y-89282946D01*
X139959974Y-89063000D01*
X140289147Y-88843054D01*
X140611054Y-88361285D01*
X140724093Y-87793000D01*
X140611054Y-87224715D01*
X140289147Y-86742946D01*
X139959974Y-86523000D01*
X140289147Y-86303054D01*
X140611054Y-85821285D01*
X140724093Y-85253000D01*
X140611054Y-84684715D01*
X140289147Y-84202946D01*
X139959974Y-83983000D01*
X140289147Y-83763054D01*
X140481618Y-83475000D01*
X141922500Y-83475000D01*
X141922500Y-96329500D01*
X141980504Y-96621105D01*
X142104505Y-96806685D01*
X142145685Y-96868315D01*
X147226185Y-101948815D01*
X147473395Y-102113996D01*
X147765000Y-102172000D01*
X151322882Y-102172000D01*
X151515353Y-102460054D01*
X151997122Y-102781961D01*
X152565407Y-102895000D01*
X152623593Y-102895000D01*
X153191878Y-102781961D01*
X153673647Y-102460054D01*
X153995554Y-101978285D01*
X154108593Y-101410000D01*
X153995554Y-100841715D01*
X153673647Y-100359946D01*
X153344474Y-100140000D01*
X153673647Y-99920054D01*
X153995554Y-99438285D01*
X154108593Y-98870000D01*
X153995554Y-98301715D01*
X153673647Y-97819946D01*
X153332947Y-97592298D01*
X153475858Y-97525183D01*
X153866145Y-97096924D01*
X154035976Y-96686890D01*
X153914655Y-96457000D01*
X152721500Y-96457000D01*
X152721500Y-96477000D01*
X152467500Y-96477000D01*
X152467500Y-96457000D01*
X151274345Y-96457000D01*
X151153024Y-96686890D01*
X151322855Y-97096924D01*
X151713142Y-97525183D01*
X151856053Y-97592298D01*
X151515353Y-97819946D01*
X151322882Y-98108000D01*
X149033130Y-98108000D01*
X147701000Y-96775870D01*
X147701000Y-92940000D01*
X151097060Y-92940000D01*
X151097060Y-94640000D01*
X151141338Y-94875317D01*
X151280410Y-95091441D01*
X151492610Y-95236431D01*
X151600607Y-95258301D01*
X151322855Y-95563076D01*
X151153024Y-95973110D01*
X151274345Y-96203000D01*
X152467500Y-96203000D01*
X152467500Y-96183000D01*
X152721500Y-96183000D01*
X152721500Y-96203000D01*
X153914655Y-96203000D01*
X154035976Y-95973110D01*
X153866145Y-95563076D01*
X153589999Y-95260063D01*
X153679817Y-95243162D01*
X153895941Y-95104090D01*
X154040931Y-94891890D01*
X154091940Y-94640000D01*
X154091940Y-92940000D01*
X154047662Y-92704683D01*
X153908590Y-92488559D01*
X153696390Y-92343569D01*
X153444500Y-92292560D01*
X151744500Y-92292560D01*
X151509183Y-92336838D01*
X151293059Y-92475910D01*
X151148069Y-92688110D01*
X151097060Y-92940000D01*
X147701000Y-92940000D01*
X147701000Y-82335392D01*
X148064514Y-82335392D01*
X148310817Y-82859858D01*
X148739076Y-83250145D01*
X149149110Y-83419976D01*
X149379000Y-83298655D01*
X149379000Y-82105500D01*
X148185181Y-82105500D01*
X148064514Y-82335392D01*
X147701000Y-82335392D01*
X147701000Y-81621608D01*
X148064514Y-81621608D01*
X148185181Y-81851500D01*
X149379000Y-81851500D01*
X149379000Y-80658345D01*
X149149110Y-80537024D01*
X148739076Y-80706855D01*
X148310817Y-81097142D01*
X148064514Y-81621608D01*
X147701000Y-81621608D01*
X147701000Y-76263500D01*
X147642996Y-75971895D01*
X147477815Y-75724685D01*
X146307315Y-74554185D01*
X146219312Y-74495383D01*
X146060105Y-74389004D01*
X145768500Y-74331000D01*
X140481618Y-74331000D01*
X140289147Y-74042946D01*
X140247548Y-74015150D01*
X140295317Y-74006162D01*
X140511441Y-73867090D01*
X140656431Y-73654890D01*
X140707440Y-73403000D01*
X140707440Y-73315000D01*
X155222370Y-73315000D01*
X156364000Y-74456630D01*
X156364000Y-80706882D01*
X156075946Y-80899353D01*
X155856000Y-81228526D01*
X155636054Y-80899353D01*
X155154285Y-80577446D01*
X154586000Y-80464407D01*
X154017715Y-80577446D01*
X153535946Y-80899353D01*
X153316000Y-81228526D01*
X153096054Y-80899353D01*
X152614285Y-80577446D01*
X152046000Y-80464407D01*
X151477715Y-80577446D01*
X150995946Y-80899353D01*
X150768298Y-81240053D01*
X150701183Y-81097142D01*
X150272924Y-80706855D01*
X149862890Y-80537024D01*
X149633000Y-80658345D01*
X149633000Y-81851500D01*
X149653000Y-81851500D01*
X149653000Y-82105500D01*
X149633000Y-82105500D01*
X149633000Y-83298655D01*
X149862890Y-83419976D01*
X150272924Y-83250145D01*
X150701183Y-82859858D01*
X150768298Y-82716947D01*
X150995946Y-83057647D01*
X151477715Y-83379554D01*
X152046000Y-83492593D01*
X152614285Y-83379554D01*
X153096054Y-83057647D01*
X153316000Y-82728474D01*
X153535946Y-83057647D01*
X154017715Y-83379554D01*
X154586000Y-83492593D01*
X155154285Y-83379554D01*
X155636054Y-83057647D01*
X155856000Y-82728474D01*
X156075946Y-83057647D01*
X156557715Y-83379554D01*
X157126000Y-83492593D01*
X157694285Y-83379554D01*
X158176054Y-83057647D01*
X158396000Y-82728474D01*
X158615946Y-83057647D01*
X159097715Y-83379554D01*
X159666000Y-83492593D01*
X160234285Y-83379554D01*
X160716054Y-83057647D01*
X160743850Y-83016048D01*
X160752838Y-83063817D01*
X160891910Y-83279941D01*
X161104110Y-83424931D01*
X161356000Y-83475940D01*
X163056000Y-83475940D01*
X163291317Y-83431662D01*
X163507441Y-83292590D01*
X163652431Y-83080390D01*
X163703440Y-82828500D01*
X163703440Y-81128500D01*
X163659162Y-80893183D01*
X163520090Y-80677059D01*
X163307890Y-80532069D01*
X163056000Y-80481060D01*
X161356000Y-80481060D01*
X161120683Y-80525338D01*
X160904559Y-80664410D01*
X160759569Y-80876610D01*
X160745914Y-80944041D01*
X160716054Y-80899353D01*
X160234285Y-80577446D01*
X159666000Y-80464407D01*
X159097715Y-80577446D01*
X158615946Y-80899353D01*
X158396000Y-81228526D01*
X158176054Y-80899353D01*
X157888000Y-80706882D01*
X157888000Y-74141000D01*
X157829996Y-73849395D01*
X157664815Y-73602185D01*
X156076815Y-72014185D01*
X155829605Y-71849004D01*
X155538000Y-71791000D01*
X140707440Y-71791000D01*
X140707440Y-71703000D01*
X140663162Y-71467683D01*
X140524090Y-71251559D01*
X140311890Y-71106569D01*
X140060000Y-71055560D01*
X138360000Y-71055560D01*
X138124683Y-71099838D01*
X137908559Y-71238910D01*
X137763569Y-71451110D01*
X137712560Y-71703000D01*
X137712560Y-73403000D01*
X137756838Y-73638317D01*
X137895910Y-73854441D01*
X138108110Y-73999431D01*
X138175541Y-74013086D01*
X138130853Y-74042946D01*
X137808946Y-74524715D01*
X137695907Y-75093000D01*
X115004202Y-75093000D01*
X114911054Y-74624715D01*
X114589147Y-74142946D01*
X114547548Y-74115150D01*
X114595317Y-74106162D01*
X114811441Y-73967090D01*
X114956431Y-73754890D01*
X115007440Y-73503000D01*
X115007440Y-71803000D01*
X114963162Y-71567683D01*
X114824090Y-71351559D01*
X114611890Y-71206569D01*
X114360000Y-71155560D01*
X112660000Y-71155560D01*
X112424683Y-71199838D01*
X112208559Y-71338910D01*
X112063569Y-71551110D01*
X112012560Y-71803000D01*
X112012560Y-73503000D01*
X112056838Y-73738317D01*
X112195910Y-73954441D01*
X112408110Y-74099431D01*
X112475541Y-74113086D01*
X112430853Y-74142946D01*
X112108946Y-74624715D01*
X111995907Y-75193000D01*
X112108946Y-75761285D01*
X112430853Y-76243054D01*
X112760026Y-76463000D01*
X112430853Y-76682946D01*
X112108946Y-77164715D01*
X111995907Y-77733000D01*
X112108946Y-78301285D01*
X112430853Y-78783054D01*
X112760026Y-79003000D01*
X112430853Y-79222946D01*
X112108946Y-79704715D01*
X111995907Y-80273000D01*
X112108946Y-80841285D01*
X112430853Y-81323054D01*
X112760026Y-81543000D01*
X112430853Y-81762946D01*
X112108946Y-82244715D01*
X112004488Y-82769858D01*
X109855000Y-80620370D01*
X109855000Y-74803000D01*
X109796996Y-74511395D01*
X109631815Y-74264185D01*
X105988815Y-70621185D01*
X105741605Y-70456004D01*
X105450000Y-70398000D01*
X104419639Y-70398000D01*
X104396725Y-70342543D01*
X103990595Y-69935703D01*
X103459689Y-69715252D01*
X102884833Y-69714750D01*
X102353543Y-69934275D01*
X101946703Y-70340405D01*
X101726252Y-70871311D01*
X101725750Y-71446167D01*
X101945275Y-71977457D01*
X102351405Y-72384297D01*
X102882311Y-72604748D01*
X103457167Y-72605250D01*
X103988457Y-72385725D01*
X104395297Y-71979595D01*
X104419212Y-71922000D01*
X105134370Y-71922000D01*
X108331000Y-75118630D01*
X108331000Y-80936000D01*
X108389004Y-81227605D01*
X108491581Y-81381122D01*
X108554185Y-81474815D01*
X112068321Y-84988952D01*
X111995907Y-85353000D01*
X112108946Y-85921285D01*
X112430853Y-86403054D01*
X112760026Y-86623000D01*
X112430853Y-86842946D01*
X112238382Y-87131000D01*
X111259130Y-87131000D01*
X103218315Y-79090185D01*
X102971105Y-78925004D01*
X102679500Y-78867000D01*
X95182366Y-78867000D01*
X95159162Y-78743683D01*
X95020090Y-78527559D01*
X94807890Y-78382569D01*
X94568000Y-78333990D01*
X94568000Y-74883000D01*
X94526624Y-74674988D01*
X97335617Y-74674988D01*
X97410980Y-74922144D01*
X97951834Y-75116916D01*
X98526055Y-75089886D01*
X98931020Y-74922144D01*
X99006383Y-74674988D01*
X98171000Y-73839605D01*
X97335617Y-74674988D01*
X94526624Y-74674988D01*
X94509996Y-74591395D01*
X94403895Y-74432604D01*
X94344815Y-74344184D01*
X94137815Y-74137185D01*
X93890605Y-73972004D01*
X93686405Y-73931386D01*
X93611894Y-73751057D01*
X93302213Y-73440834D01*
X96714084Y-73440834D01*
X96741114Y-74015055D01*
X96908856Y-74420020D01*
X97156012Y-74495383D01*
X97991395Y-73660000D01*
X98350605Y-73660000D01*
X99185988Y-74495383D01*
X99433144Y-74420020D01*
X99627916Y-73879166D01*
X99600886Y-73304945D01*
X99433144Y-72899980D01*
X99185988Y-72824617D01*
X98350605Y-73660000D01*
X97991395Y-73660000D01*
X97156012Y-72824617D01*
X96908856Y-72899980D01*
X96714084Y-73440834D01*
X93302213Y-73440834D01*
X93152363Y-73290722D01*
X92551648Y-73041284D01*
X91901205Y-73040716D01*
X91300057Y-73289106D01*
X90839722Y-73748637D01*
X90590284Y-74349352D01*
X90589716Y-74999795D01*
X90838106Y-75600943D01*
X91297637Y-76061278D01*
X91898352Y-76310716D01*
X92548795Y-76311284D01*
X93044000Y-76106669D01*
X93044000Y-78333818D01*
X92820683Y-78375838D01*
X92604559Y-78514910D01*
X92459569Y-78727110D01*
X92452809Y-78760490D01*
X92394327Y-78619301D01*
X92215698Y-78440673D01*
X91982309Y-78344000D01*
X91391750Y-78344000D01*
X91233000Y-78502750D01*
X91233000Y-79502000D01*
X91253000Y-79502000D01*
X91253000Y-79756000D01*
X91233000Y-79756000D01*
X91233000Y-80755250D01*
X91391750Y-80914000D01*
X91982309Y-80914000D01*
X92215698Y-80817327D01*
X92394327Y-80638699D01*
X92450654Y-80502713D01*
X92452838Y-80514317D01*
X92591910Y-80730441D01*
X92804110Y-80875431D01*
X93056000Y-80926440D01*
X94556000Y-80926440D01*
X94791317Y-80882162D01*
X95007441Y-80743090D01*
X95152431Y-80530890D01*
X95180759Y-80391000D01*
X102363870Y-80391000D01*
X110404685Y-88431815D01*
X110651895Y-88596996D01*
X110943500Y-88655000D01*
X112238382Y-88655000D01*
X112430853Y-88943054D01*
X112760026Y-89163000D01*
X112430853Y-89382946D01*
X112108946Y-89864715D01*
X111995907Y-90433000D01*
X112108946Y-91001285D01*
X112430853Y-91483054D01*
X112760026Y-91703000D01*
X112430853Y-91922946D01*
X112263839Y-92172900D01*
X109814412Y-92172900D01*
X108496100Y-90854588D01*
X108496100Y-88900000D01*
X108435196Y-88593815D01*
X108261756Y-88334244D01*
X105848756Y-85921244D01*
X105589185Y-85747804D01*
X105283000Y-85686900D01*
X105017697Y-85686900D01*
X105001662Y-85601683D01*
X104862590Y-85385559D01*
X104650390Y-85240569D01*
X104398500Y-85189560D01*
X102898500Y-85189560D01*
X102663183Y-85233838D01*
X102447059Y-85372910D01*
X102302069Y-85585110D01*
X102299419Y-85598197D01*
X102162590Y-85385559D01*
X101950390Y-85240569D01*
X101698500Y-85189560D01*
X100198500Y-85189560D01*
X99963183Y-85233838D01*
X99747059Y-85372910D01*
X99602069Y-85585110D01*
X99600795Y-85591400D01*
X98080940Y-85591400D01*
X98080940Y-85391500D01*
X98036662Y-85156183D01*
X97897590Y-84940059D01*
X97685390Y-84795069D01*
X97433500Y-84744060D01*
X95733500Y-84744060D01*
X95498183Y-84788338D01*
X95282059Y-84927410D01*
X95137069Y-85139610D01*
X95086060Y-85391500D01*
X95086060Y-87391500D01*
X95130338Y-87626817D01*
X95269410Y-87842941D01*
X95481610Y-87987931D01*
X95733500Y-88038940D01*
X97433500Y-88038940D01*
X97668817Y-87994662D01*
X97884941Y-87855590D01*
X98029931Y-87643390D01*
X98080940Y-87391500D01*
X98080940Y-87191600D01*
X99561334Y-87191600D01*
X99595338Y-87372317D01*
X99734410Y-87588441D01*
X99946610Y-87733431D01*
X100198500Y-87784440D01*
X101698500Y-87784440D01*
X101933817Y-87740162D01*
X102149941Y-87601090D01*
X102294931Y-87388890D01*
X102297581Y-87375803D01*
X102434410Y-87588441D01*
X102646610Y-87733431D01*
X102898500Y-87784440D01*
X104398500Y-87784440D01*
X104633817Y-87740162D01*
X104849941Y-87601090D01*
X104994931Y-87388890D01*
X105004774Y-87340286D01*
X106895900Y-89231412D01*
X106895900Y-91186000D01*
X106956804Y-91492185D01*
X107130244Y-91751756D01*
X108917244Y-93538756D01*
X109176815Y-93712196D01*
X109483000Y-93773100D01*
X112263839Y-93773100D01*
X112430853Y-94023054D01*
X112760026Y-94243000D01*
X112430853Y-94462946D01*
X112414112Y-94488000D01*
X105088366Y-94488000D01*
X105065162Y-94364683D01*
X104926090Y-94148559D01*
X104713890Y-94003569D01*
X104462000Y-93952560D01*
X102962000Y-93952560D01*
X102726683Y-93996838D01*
X102510559Y-94135910D01*
X102365569Y-94348110D01*
X102362919Y-94361197D01*
X102226090Y-94148559D01*
X102013890Y-94003569D01*
X101762000Y-93952560D01*
X100262000Y-93952560D01*
X100026683Y-93996838D01*
X99810559Y-94135910D01*
X99765402Y-94202000D01*
X98271440Y-94202000D01*
X98271440Y-93964000D01*
X98227162Y-93728683D01*
X98088090Y-93512559D01*
X97875890Y-93367569D01*
X97624000Y-93316560D01*
X95924000Y-93316560D01*
X95688683Y-93360838D01*
X95472559Y-93499910D01*
X95327569Y-93712110D01*
X95276560Y-93964000D01*
X95276560Y-95964000D01*
X95320838Y-96199317D01*
X95459910Y-96415441D01*
X95672110Y-96560431D01*
X95924000Y-96611440D01*
X97624000Y-96611440D01*
X97859317Y-96567162D01*
X98075441Y-96428090D01*
X98220431Y-96215890D01*
X98271440Y-95964000D01*
X98271440Y-95726000D01*
X99614560Y-95726000D01*
X99614560Y-95900000D01*
X99658838Y-96135317D01*
X99797910Y-96351441D01*
X100010110Y-96496431D01*
X100262000Y-96547440D01*
X101762000Y-96547440D01*
X101997317Y-96503162D01*
X102213441Y-96364090D01*
X102358431Y-96151890D01*
X102361081Y-96138803D01*
X102497910Y-96351441D01*
X102710110Y-96496431D01*
X102962000Y-96547440D01*
X104462000Y-96547440D01*
X104697317Y-96503162D01*
X104913441Y-96364090D01*
X105058431Y-96151890D01*
X105086759Y-96012000D01*
X112095164Y-96012000D01*
X112108946Y-96081285D01*
X112430853Y-96563054D01*
X112760026Y-96783000D01*
X112430853Y-97002946D01*
X112117108Y-97472500D01*
X95629130Y-97472500D01*
X92900500Y-94743870D01*
X92900500Y-91249750D01*
X95289000Y-91249750D01*
X95289000Y-92090309D01*
X95385673Y-92323698D01*
X95564301Y-92502327D01*
X95797690Y-92599000D01*
X96488250Y-92599000D01*
X96647000Y-92440250D01*
X96647000Y-91091000D01*
X96901000Y-91091000D01*
X96901000Y-92440250D01*
X97059750Y-92599000D01*
X97750310Y-92599000D01*
X97983699Y-92502327D01*
X98162327Y-92323698D01*
X98259000Y-92090309D01*
X98259000Y-91249750D01*
X98100250Y-91091000D01*
X96901000Y-91091000D01*
X96647000Y-91091000D01*
X95447750Y-91091000D01*
X95289000Y-91249750D01*
X92900500Y-91249750D01*
X92900500Y-90233500D01*
X92842496Y-89941895D01*
X92772869Y-89837691D01*
X95289000Y-89837691D01*
X95289000Y-90678250D01*
X95447750Y-90837000D01*
X96647000Y-90837000D01*
X96647000Y-89487750D01*
X96901000Y-89487750D01*
X96901000Y-90837000D01*
X98100250Y-90837000D01*
X98259000Y-90678250D01*
X98259000Y-89837691D01*
X98162327Y-89604302D01*
X97983699Y-89425673D01*
X97750310Y-89329000D01*
X97059750Y-89329000D01*
X96901000Y-89487750D01*
X96647000Y-89487750D01*
X96488250Y-89329000D01*
X95797690Y-89329000D01*
X95564301Y-89425673D01*
X95385673Y-89604302D01*
X95289000Y-89837691D01*
X92772869Y-89837691D01*
X92734057Y-89779605D01*
X92677315Y-89694684D01*
X91931815Y-88949185D01*
X91922639Y-88943054D01*
X91684605Y-88784004D01*
X91393000Y-88726000D01*
X89719221Y-88726000D01*
X89651894Y-88563057D01*
X89192363Y-88102722D01*
X88591648Y-87853284D01*
X87941205Y-87852716D01*
X87340057Y-88101106D01*
X86879722Y-88560637D01*
X86630284Y-89161352D01*
X86629716Y-89811795D01*
X80847000Y-89811795D01*
X80847000Y-82677250D01*
X95098500Y-82677250D01*
X95098500Y-83517809D01*
X95195173Y-83751198D01*
X95373801Y-83929827D01*
X95607190Y-84026500D01*
X96297750Y-84026500D01*
X96456500Y-83867750D01*
X96456500Y-82518500D01*
X96710500Y-82518500D01*
X96710500Y-83867750D01*
X96869250Y-84026500D01*
X97559810Y-84026500D01*
X97793199Y-83929827D01*
X97971827Y-83751198D01*
X98068500Y-83517809D01*
X98068500Y-82677250D01*
X97909750Y-82518500D01*
X96710500Y-82518500D01*
X96456500Y-82518500D01*
X95257250Y-82518500D01*
X95098500Y-82677250D01*
X80847000Y-82677250D01*
X80847000Y-81265191D01*
X95098500Y-81265191D01*
X95098500Y-82105750D01*
X95257250Y-82264500D01*
X96456500Y-82264500D01*
X96456500Y-80915250D01*
X96710500Y-80915250D01*
X96710500Y-82264500D01*
X97909750Y-82264500D01*
X98068500Y-82105750D01*
X98068500Y-81265191D01*
X97971827Y-81031802D01*
X97793199Y-80853173D01*
X97559810Y-80756500D01*
X96869250Y-80756500D01*
X96710500Y-80915250D01*
X96456500Y-80915250D01*
X96297750Y-80756500D01*
X95607190Y-80756500D01*
X95373801Y-80853173D01*
X95195173Y-81031802D01*
X95098500Y-81265191D01*
X80847000Y-81265191D01*
X80847000Y-79914750D01*
X89721000Y-79914750D01*
X89721000Y-80405310D01*
X89817673Y-80638699D01*
X89996302Y-80817327D01*
X90229691Y-80914000D01*
X90820250Y-80914000D01*
X90979000Y-80755250D01*
X90979000Y-79756000D01*
X89879750Y-79756000D01*
X89721000Y-79914750D01*
X80847000Y-79914750D01*
X80847000Y-78852690D01*
X89721000Y-78852690D01*
X89721000Y-79343250D01*
X89879750Y-79502000D01*
X90979000Y-79502000D01*
X90979000Y-78502750D01*
X90820250Y-78344000D01*
X90229691Y-78344000D01*
X89996302Y-78440673D01*
X89817673Y-78619301D01*
X89721000Y-78852690D01*
X80847000Y-78852690D01*
X80847000Y-74999795D01*
X84089716Y-74999795D01*
X84338106Y-75600943D01*
X84797637Y-76061278D01*
X85398352Y-76310716D01*
X86048795Y-76311284D01*
X86649943Y-76062894D01*
X87110278Y-75603363D01*
X87359716Y-75002648D01*
X87360284Y-74352205D01*
X87111894Y-73751057D01*
X86652363Y-73290722D01*
X86051648Y-73041284D01*
X85401205Y-73040716D01*
X84800057Y-73289106D01*
X84339722Y-73748637D01*
X84090284Y-74349352D01*
X84089716Y-74999795D01*
X80847000Y-74999795D01*
X80847000Y-72645012D01*
X97335617Y-72645012D01*
X98171000Y-73480395D01*
X99006383Y-72645012D01*
X98931020Y-72397856D01*
X98390166Y-72203084D01*
X97815945Y-72230114D01*
X97410980Y-72397856D01*
X97335617Y-72645012D01*
X80847000Y-72645012D01*
X80847000Y-68499795D01*
X84089716Y-68499795D01*
X84338106Y-69100943D01*
X84797637Y-69561278D01*
X85398352Y-69810716D01*
X86048795Y-69811284D01*
X86649943Y-69562894D01*
X87110278Y-69103363D01*
X87359716Y-68502648D01*
X87359718Y-68499795D01*
X90589716Y-68499795D01*
X90838106Y-69100943D01*
X91297637Y-69561278D01*
X91898352Y-69810716D01*
X92548795Y-69811284D01*
X93149943Y-69562894D01*
X93610278Y-69103363D01*
X93675551Y-68946167D01*
X96725750Y-68946167D01*
X96945275Y-69477457D01*
X97351405Y-69884297D01*
X97882311Y-70104748D01*
X98457167Y-70105250D01*
X98988457Y-69885725D01*
X99395297Y-69479595D01*
X99615748Y-68948689D01*
X99616250Y-68373833D01*
X99396725Y-67842543D01*
X98990595Y-67435703D01*
X98459689Y-67215252D01*
X97884833Y-67214750D01*
X97353543Y-67434275D01*
X96946703Y-67840405D01*
X96726252Y-68371311D01*
X96725750Y-68946167D01*
X93675551Y-68946167D01*
X93859716Y-68502648D01*
X93860284Y-67852205D01*
X93611894Y-67251057D01*
X93152363Y-66790722D01*
X92551648Y-66541284D01*
X91901205Y-66540716D01*
X91300057Y-66789106D01*
X90839722Y-67248637D01*
X90590284Y-67849352D01*
X90589716Y-68499795D01*
X87359718Y-68499795D01*
X87360284Y-67852205D01*
X87111894Y-67251057D01*
X86652363Y-66790722D01*
X86051648Y-66541284D01*
X85401205Y-66540716D01*
X84800057Y-66789106D01*
X84339722Y-67248637D01*
X84090284Y-67849352D01*
X84089716Y-68499795D01*
X80847000Y-68499795D01*
X80847000Y-64972000D01*
X165914000Y-64972000D01*
X165914000Y-123242000D01*
M02*
