M48
;DRILL file {KiCad 4.0.7} date 01/13/18 10:07:20
;FORMAT={2:4/ absolute / inch / suppress trailing zeros}
FMAT,2
INCH,LZ
T1C0.013
T2C0.031
T3C0.035
T4C0.039
T5C0.043
T6C0.051
%
G90
G05
M72
T1
X05784Y-042
X05916Y-04372
T2
X061675Y-04205
X064675Y-04205
T3
X03865Y-027031
X03865Y-029
X040619Y-028016
T4
X044689Y-028604
X044689Y-028604
X044689Y-029604
X044689Y-029604
X044689Y-030604
X044689Y-030604
X044689Y-031604
X044689Y-031604
X044689Y-032604
X044689Y-032604
X044689Y-033604
X044689Y-033604
X044689Y-034604
X044689Y-034604
X044689Y-035604
X044689Y-035604
X044689Y-036604
X044689Y-036604
X044689Y-037604
X044689Y-037604
X044689Y-038604
X044689Y-038604
X044689Y-039604
X044689Y-039604
X044689Y-040604
X044689Y-040604
X044689Y-041604
X044689Y-041604
X044689Y-042604
X044689Y-042604
X054807Y-028564
X054807Y-028564
X054807Y-029564
X054807Y-029564
X054807Y-030564
X054807Y-030564
X054807Y-031564
X054807Y-031564
X054807Y-032564
X054807Y-032564
X054807Y-033564
X054807Y-033564
X054807Y-034564
X054807Y-034564
X054807Y-035564
X054807Y-035564
X054807Y-036564
X054807Y-036564
X054807Y-037564
X054807Y-037564
X054807Y-038564
X054807Y-038564
X054807Y-039564
X054807Y-039564
X054807Y-040564
X054807Y-040564
X054807Y-041564
X054807Y-041564
X054807Y-042564
X054807Y-042564
X058807Y-04766
X058861Y-032275
X059807Y-04766
X059861Y-032275
X060077Y-036925
X060077Y-037925
X060077Y-038925
X060077Y-039925
X060807Y-04766
X060861Y-032275
X061807Y-04766
X061861Y-032275
X062861Y-032275
X063861Y-032275
T5
X03375Y-026841
X03375Y-0294
X036309Y-026841
X036309Y-0294
T6
X03475Y-035231
X03475Y-0372
X03475Y-039169
X03475Y-042031
X03475Y-044
X03475Y-045969
T0
M30
