G04 #@! TF.FileFunction,Copper,L2,Bot,Signal*
%FSLAX46Y46*%
G04 Gerber Fmt 4.6, Leading zero omitted, Abs format (unit mm)*
G04 Created by KiCad (PCBNEW 4.0.7) date 01/13/18 10:07:04*
%MOMM*%
%LPD*%
G01*
G04 APERTURE LIST*
%ADD10C,0.100000*%
%ADD11C,2.000000*%
%ADD12R,1.700000X1.700000*%
%ADD13O,1.700000X1.700000*%
%ADD14C,1.600000*%
%ADD15O,1.600000X1.600000*%
%ADD16C,1.620000*%
%ADD17C,0.685800*%
%ADD18C,0.254000*%
%ADD19C,0.250000*%
G04 APERTURE END LIST*
D10*
D11*
X92225000Y-74676000D03*
X85725000Y-74676000D03*
X92225000Y-68176000D03*
X85725000Y-68176000D03*
X88265000Y-116760000D03*
X88265000Y-111760000D03*
X88265000Y-106760000D03*
D12*
X162206000Y-81978500D03*
D13*
X159666000Y-81978500D03*
X157126000Y-81978500D03*
X154586000Y-81978500D03*
X152046000Y-81978500D03*
X149506000Y-81978500D03*
D11*
X88265000Y-99488000D03*
X88265000Y-94488000D03*
X88265000Y-89488000D03*
D12*
X152594500Y-93790000D03*
D13*
X152594500Y-96330000D03*
X152594500Y-98870000D03*
X152594500Y-101410000D03*
D12*
X149369200Y-121056400D03*
D13*
X151909200Y-121056400D03*
X154449200Y-121056400D03*
X156989200Y-121056400D03*
X139210000Y-108113000D03*
X139210000Y-105573000D03*
X139210000Y-103033000D03*
X139210000Y-100493000D03*
X139210000Y-97953000D03*
X139210000Y-95413000D03*
X139210000Y-92873000D03*
X139210000Y-90333000D03*
X139210000Y-87793000D03*
X139210000Y-85253000D03*
X139210000Y-82713000D03*
X139210000Y-80173000D03*
X139210000Y-77633000D03*
X139210000Y-75093000D03*
D12*
X139210000Y-72553000D03*
X139210000Y-72553000D03*
D13*
X139210000Y-75093000D03*
X139210000Y-77633000D03*
X139210000Y-80173000D03*
X139210000Y-82713000D03*
X139210000Y-85253000D03*
X139210000Y-87793000D03*
X139210000Y-90333000D03*
X139210000Y-92873000D03*
X139210000Y-95413000D03*
X139210000Y-97953000D03*
X139210000Y-100493000D03*
X139210000Y-103033000D03*
X139210000Y-105573000D03*
X139210000Y-108113000D03*
X113510000Y-108213000D03*
X113510000Y-105673000D03*
X113510000Y-103133000D03*
X113510000Y-100593000D03*
X113510000Y-98053000D03*
X113510000Y-95513000D03*
X113510000Y-92973000D03*
X113510000Y-90433000D03*
X113510000Y-87893000D03*
X113510000Y-85353000D03*
X113510000Y-82813000D03*
X113510000Y-80273000D03*
X113510000Y-77733000D03*
X113510000Y-75193000D03*
D12*
X113510000Y-72653000D03*
X113510000Y-72653000D03*
D13*
X113510000Y-75193000D03*
X113510000Y-77733000D03*
X113510000Y-80273000D03*
X113510000Y-82813000D03*
X113510000Y-85353000D03*
X113510000Y-87893000D03*
X113510000Y-90433000D03*
X113510000Y-92973000D03*
X113510000Y-95513000D03*
X113510000Y-98053000D03*
X113510000Y-100593000D03*
X113510000Y-103133000D03*
X113510000Y-105673000D03*
X113510000Y-108213000D03*
D14*
X156654500Y-106807000D03*
D15*
X164274500Y-106807000D03*
D16*
X98171000Y-68660000D03*
X103171000Y-71160000D03*
X98171000Y-73660000D03*
D17*
X150266400Y-111048800D03*
X146913600Y-106680000D03*
D18*
X139210000Y-90333000D02*
X158015500Y-90333000D01*
X159666000Y-88682500D02*
X159666000Y-81978500D01*
X158015500Y-90333000D02*
X159666000Y-88682500D01*
D19*
X139210000Y-90333000D02*
X139228000Y-90333000D01*
D18*
X139210000Y-87793000D02*
X153888000Y-87793000D01*
X154586000Y-87095000D02*
X154586000Y-81978500D01*
X153888000Y-87793000D02*
X154586000Y-87095000D01*
D19*
X139210000Y-87793000D02*
X139863000Y-87793000D01*
X139210000Y-87793000D02*
X139990000Y-87793000D01*
D18*
X139210000Y-85253000D02*
X151157500Y-85253000D01*
X152046000Y-84364500D02*
X152046000Y-81978500D01*
X151157500Y-85253000D02*
X152046000Y-84364500D01*
D19*
X139210000Y-85253000D02*
X139219500Y-85253000D01*
D18*
G36*
X165914000Y-123242000D02*
X80847000Y-123242000D01*
X80847000Y-121342150D01*
X147884200Y-121342150D01*
X147884200Y-122032709D01*
X147980873Y-122266098D01*
X148159501Y-122444727D01*
X148392890Y-122541400D01*
X149083450Y-122541400D01*
X149242200Y-122382650D01*
X149242200Y-121183400D01*
X148042950Y-121183400D01*
X147884200Y-121342150D01*
X80847000Y-121342150D01*
X80847000Y-120080091D01*
X147884200Y-120080091D01*
X147884200Y-120770650D01*
X148042950Y-120929400D01*
X149242200Y-120929400D01*
X149242200Y-119730150D01*
X149496200Y-119730150D01*
X149496200Y-120929400D01*
X149516200Y-120929400D01*
X149516200Y-121183400D01*
X149496200Y-121183400D01*
X149496200Y-122382650D01*
X149654950Y-122541400D01*
X150345510Y-122541400D01*
X150578899Y-122444727D01*
X150757527Y-122266098D01*
X150829797Y-122091623D01*
X150859146Y-122135547D01*
X151340915Y-122457454D01*
X151909200Y-122570493D01*
X152477485Y-122457454D01*
X152959254Y-122135547D01*
X153179200Y-121806374D01*
X153399146Y-122135547D01*
X153880915Y-122457454D01*
X154449200Y-122570493D01*
X155017485Y-122457454D01*
X155499254Y-122135547D01*
X155719200Y-121806374D01*
X155939146Y-122135547D01*
X156420915Y-122457454D01*
X156989200Y-122570493D01*
X157557485Y-122457454D01*
X158039254Y-122135547D01*
X158361161Y-121653778D01*
X158474200Y-121085493D01*
X158474200Y-121027307D01*
X158361161Y-120459022D01*
X158039254Y-119977253D01*
X157557485Y-119655346D01*
X156989200Y-119542307D01*
X156420915Y-119655346D01*
X155939146Y-119977253D01*
X155719200Y-120306426D01*
X155499254Y-119977253D01*
X155017485Y-119655346D01*
X154449200Y-119542307D01*
X153880915Y-119655346D01*
X153399146Y-119977253D01*
X153179200Y-120306426D01*
X152959254Y-119977253D01*
X152477485Y-119655346D01*
X151909200Y-119542307D01*
X151340915Y-119655346D01*
X150859146Y-119977253D01*
X150829797Y-120021177D01*
X150757527Y-119846702D01*
X150578899Y-119668073D01*
X150345510Y-119571400D01*
X149654950Y-119571400D01*
X149496200Y-119730150D01*
X149242200Y-119730150D01*
X149083450Y-119571400D01*
X148392890Y-119571400D01*
X148159501Y-119668073D01*
X147980873Y-119846702D01*
X147884200Y-120080091D01*
X80847000Y-120080091D01*
X80847000Y-117083795D01*
X86629716Y-117083795D01*
X86878106Y-117684943D01*
X87337637Y-118145278D01*
X87938352Y-118394716D01*
X88588795Y-118395284D01*
X89189943Y-118146894D01*
X89650278Y-117687363D01*
X89899716Y-117086648D01*
X89900284Y-116436205D01*
X89651894Y-115835057D01*
X89192363Y-115374722D01*
X88591648Y-115125284D01*
X87941205Y-115124716D01*
X87340057Y-115373106D01*
X86879722Y-115832637D01*
X86630284Y-116433352D01*
X86629716Y-117083795D01*
X80847000Y-117083795D01*
X80847000Y-112912532D01*
X87292073Y-112912532D01*
X87390736Y-113179387D01*
X88000461Y-113405908D01*
X88650460Y-113381856D01*
X89139264Y-113179387D01*
X89237927Y-112912532D01*
X88265000Y-111939605D01*
X87292073Y-112912532D01*
X80847000Y-112912532D01*
X80847000Y-111495461D01*
X86619092Y-111495461D01*
X86643144Y-112145460D01*
X86845613Y-112634264D01*
X87112468Y-112732927D01*
X88085395Y-111760000D01*
X88444605Y-111760000D01*
X89417532Y-112732927D01*
X89684387Y-112634264D01*
X89910908Y-112024539D01*
X89886856Y-111374540D01*
X89684387Y-110885736D01*
X89417532Y-110787073D01*
X88444605Y-111760000D01*
X88085395Y-111760000D01*
X87112468Y-110787073D01*
X86845613Y-110885736D01*
X86619092Y-111495461D01*
X80847000Y-111495461D01*
X80847000Y-110607468D01*
X87292073Y-110607468D01*
X88265000Y-111580395D01*
X89237927Y-110607468D01*
X89139264Y-110340613D01*
X88529539Y-110114092D01*
X87879540Y-110138144D01*
X87390736Y-110340613D01*
X87292073Y-110607468D01*
X80847000Y-110607468D01*
X80847000Y-107083795D01*
X86629716Y-107083795D01*
X86878106Y-107684943D01*
X87337637Y-108145278D01*
X87938352Y-108394716D01*
X88588795Y-108395284D01*
X89189943Y-108146894D01*
X89650278Y-107687363D01*
X89899716Y-107086648D01*
X89900284Y-106436205D01*
X89651894Y-105835057D01*
X89192363Y-105374722D01*
X88591648Y-105125284D01*
X87941205Y-105124716D01*
X87340057Y-105373106D01*
X86879722Y-105832637D01*
X86630284Y-106433352D01*
X86629716Y-107083795D01*
X80847000Y-107083795D01*
X80847000Y-99811795D01*
X86629716Y-99811795D01*
X86878106Y-100412943D01*
X87337637Y-100873278D01*
X87938352Y-101122716D01*
X88588795Y-101123284D01*
X89189943Y-100874894D01*
X89650278Y-100415363D01*
X89899716Y-99814648D01*
X89900284Y-99164205D01*
X89651894Y-98563057D01*
X89192363Y-98102722D01*
X88591648Y-97853284D01*
X87941205Y-97852716D01*
X87340057Y-98101106D01*
X86879722Y-98560637D01*
X86630284Y-99161352D01*
X86629716Y-99811795D01*
X80847000Y-99811795D01*
X80847000Y-94811795D01*
X86629716Y-94811795D01*
X86878106Y-95412943D01*
X87337637Y-95873278D01*
X87938352Y-96122716D01*
X88588795Y-96123284D01*
X89189943Y-95874894D01*
X89650278Y-95415363D01*
X89899716Y-94814648D01*
X89900284Y-94164205D01*
X89651894Y-93563057D01*
X89192363Y-93102722D01*
X88591648Y-92853284D01*
X87941205Y-92852716D01*
X87340057Y-93101106D01*
X86879722Y-93560637D01*
X86630284Y-94161352D01*
X86629716Y-94811795D01*
X80847000Y-94811795D01*
X80847000Y-89811795D01*
X86629716Y-89811795D01*
X86878106Y-90412943D01*
X87337637Y-90873278D01*
X87938352Y-91122716D01*
X88588795Y-91123284D01*
X89189943Y-90874894D01*
X89650278Y-90415363D01*
X89899716Y-89814648D01*
X89900284Y-89164205D01*
X89651894Y-88563057D01*
X89192363Y-88102722D01*
X88591648Y-87853284D01*
X87941205Y-87852716D01*
X87340057Y-88101106D01*
X86879722Y-88560637D01*
X86630284Y-89161352D01*
X86629716Y-89811795D01*
X80847000Y-89811795D01*
X80847000Y-75828532D01*
X84752073Y-75828532D01*
X84850736Y-76095387D01*
X85460461Y-76321908D01*
X86110460Y-76297856D01*
X86599264Y-76095387D01*
X86697927Y-75828532D01*
X85725000Y-74855605D01*
X84752073Y-75828532D01*
X80847000Y-75828532D01*
X80847000Y-74411461D01*
X84079092Y-74411461D01*
X84103144Y-75061460D01*
X84305613Y-75550264D01*
X84572468Y-75648927D01*
X85545395Y-74676000D01*
X85904605Y-74676000D01*
X86877532Y-75648927D01*
X87144387Y-75550264D01*
X87348893Y-74999795D01*
X90589716Y-74999795D01*
X90838106Y-75600943D01*
X91297637Y-76061278D01*
X91898352Y-76310716D01*
X92548795Y-76311284D01*
X93149943Y-76062894D01*
X93610278Y-75603363D01*
X93780675Y-75193000D01*
X111995907Y-75193000D01*
X112108946Y-75761285D01*
X112430853Y-76243054D01*
X112760026Y-76463000D01*
X112430853Y-76682946D01*
X112108946Y-77164715D01*
X111995907Y-77733000D01*
X112108946Y-78301285D01*
X112430853Y-78783054D01*
X112760026Y-79003000D01*
X112430853Y-79222946D01*
X112108946Y-79704715D01*
X111995907Y-80273000D01*
X112108946Y-80841285D01*
X112430853Y-81323054D01*
X112760026Y-81543000D01*
X112430853Y-81762946D01*
X112108946Y-82244715D01*
X111995907Y-82813000D01*
X112108946Y-83381285D01*
X112430853Y-83863054D01*
X112760026Y-84083000D01*
X112430853Y-84302946D01*
X112108946Y-84784715D01*
X111995907Y-85353000D01*
X112108946Y-85921285D01*
X112430853Y-86403054D01*
X112760026Y-86623000D01*
X112430853Y-86842946D01*
X112108946Y-87324715D01*
X111995907Y-87893000D01*
X112108946Y-88461285D01*
X112430853Y-88943054D01*
X112760026Y-89163000D01*
X112430853Y-89382946D01*
X112108946Y-89864715D01*
X111995907Y-90433000D01*
X112108946Y-91001285D01*
X112430853Y-91483054D01*
X112760026Y-91703000D01*
X112430853Y-91922946D01*
X112108946Y-92404715D01*
X111995907Y-92973000D01*
X112108946Y-93541285D01*
X112430853Y-94023054D01*
X112760026Y-94243000D01*
X112430853Y-94462946D01*
X112108946Y-94944715D01*
X111995907Y-95513000D01*
X112108946Y-96081285D01*
X112430853Y-96563054D01*
X112760026Y-96783000D01*
X112430853Y-97002946D01*
X112108946Y-97484715D01*
X111995907Y-98053000D01*
X112108946Y-98621285D01*
X112430853Y-99103054D01*
X112760026Y-99323000D01*
X112430853Y-99542946D01*
X112108946Y-100024715D01*
X111995907Y-100593000D01*
X112108946Y-101161285D01*
X112430853Y-101643054D01*
X112760026Y-101863000D01*
X112430853Y-102082946D01*
X112108946Y-102564715D01*
X111995907Y-103133000D01*
X112108946Y-103701285D01*
X112430853Y-104183054D01*
X112760026Y-104403000D01*
X112430853Y-104622946D01*
X112108946Y-105104715D01*
X111995907Y-105673000D01*
X112108946Y-106241285D01*
X112430853Y-106723054D01*
X112760026Y-106943000D01*
X112430853Y-107162946D01*
X112108946Y-107644715D01*
X111995907Y-108213000D01*
X112108946Y-108781285D01*
X112430853Y-109263054D01*
X112912622Y-109584961D01*
X113480907Y-109698000D01*
X113539093Y-109698000D01*
X114107378Y-109584961D01*
X114589147Y-109263054D01*
X114911054Y-108781285D01*
X114972994Y-108469890D01*
X137768524Y-108469890D01*
X137938355Y-108879924D01*
X138328642Y-109308183D01*
X138853108Y-109554486D01*
X139083000Y-109433819D01*
X139083000Y-108240000D01*
X139337000Y-108240000D01*
X139337000Y-109433819D01*
X139566892Y-109554486D01*
X140091358Y-109308183D01*
X140481645Y-108879924D01*
X140651476Y-108469890D01*
X140530155Y-108240000D01*
X139337000Y-108240000D01*
X139083000Y-108240000D01*
X137889845Y-108240000D01*
X137768524Y-108469890D01*
X114972994Y-108469890D01*
X115024093Y-108213000D01*
X114911054Y-107644715D01*
X114589147Y-107162946D01*
X114259974Y-106943000D01*
X114589147Y-106723054D01*
X114911054Y-106241285D01*
X115024093Y-105673000D01*
X114911054Y-105104715D01*
X114589147Y-104622946D01*
X114259974Y-104403000D01*
X114589147Y-104183054D01*
X114911054Y-103701285D01*
X115024093Y-103133000D01*
X114911054Y-102564715D01*
X114589147Y-102082946D01*
X114259974Y-101863000D01*
X114589147Y-101643054D01*
X114911054Y-101161285D01*
X115024093Y-100593000D01*
X114911054Y-100024715D01*
X114589147Y-99542946D01*
X114259974Y-99323000D01*
X114589147Y-99103054D01*
X114911054Y-98621285D01*
X115024093Y-98053000D01*
X114911054Y-97484715D01*
X114589147Y-97002946D01*
X114259974Y-96783000D01*
X114589147Y-96563054D01*
X114911054Y-96081285D01*
X115024093Y-95513000D01*
X114911054Y-94944715D01*
X114589147Y-94462946D01*
X114259974Y-94243000D01*
X114589147Y-94023054D01*
X114911054Y-93541285D01*
X115024093Y-92973000D01*
X114911054Y-92404715D01*
X114589147Y-91922946D01*
X114259974Y-91703000D01*
X114589147Y-91483054D01*
X114911054Y-91001285D01*
X115024093Y-90433000D01*
X114911054Y-89864715D01*
X114589147Y-89382946D01*
X114259974Y-89163000D01*
X114589147Y-88943054D01*
X114911054Y-88461285D01*
X115024093Y-87893000D01*
X114911054Y-87324715D01*
X114589147Y-86842946D01*
X114259974Y-86623000D01*
X114589147Y-86403054D01*
X114911054Y-85921285D01*
X115024093Y-85353000D01*
X114911054Y-84784715D01*
X114589147Y-84302946D01*
X114259974Y-84083000D01*
X114589147Y-83863054D01*
X114911054Y-83381285D01*
X115024093Y-82813000D01*
X114911054Y-82244715D01*
X114589147Y-81762946D01*
X114259974Y-81543000D01*
X114589147Y-81323054D01*
X114911054Y-80841285D01*
X115024093Y-80273000D01*
X114911054Y-79704715D01*
X114589147Y-79222946D01*
X114259974Y-79003000D01*
X114589147Y-78783054D01*
X114911054Y-78301285D01*
X115024093Y-77733000D01*
X114911054Y-77164715D01*
X114589147Y-76682946D01*
X114259974Y-76463000D01*
X114589147Y-76243054D01*
X114911054Y-75761285D01*
X115024093Y-75193000D01*
X115004202Y-75093000D01*
X137695907Y-75093000D01*
X137808946Y-75661285D01*
X138130853Y-76143054D01*
X138460026Y-76363000D01*
X138130853Y-76582946D01*
X137808946Y-77064715D01*
X137695907Y-77633000D01*
X137808946Y-78201285D01*
X138130853Y-78683054D01*
X138460026Y-78903000D01*
X138130853Y-79122946D01*
X137808946Y-79604715D01*
X137695907Y-80173000D01*
X137808946Y-80741285D01*
X138130853Y-81223054D01*
X138460026Y-81443000D01*
X138130853Y-81662946D01*
X137808946Y-82144715D01*
X137695907Y-82713000D01*
X137808946Y-83281285D01*
X138130853Y-83763054D01*
X138460026Y-83983000D01*
X138130853Y-84202946D01*
X137808946Y-84684715D01*
X137695907Y-85253000D01*
X137808946Y-85821285D01*
X138130853Y-86303054D01*
X138460026Y-86523000D01*
X138130853Y-86742946D01*
X137808946Y-87224715D01*
X137695907Y-87793000D01*
X137808946Y-88361285D01*
X138130853Y-88843054D01*
X138460026Y-89063000D01*
X138130853Y-89282946D01*
X137808946Y-89764715D01*
X137695907Y-90333000D01*
X137808946Y-90901285D01*
X138130853Y-91383054D01*
X138460026Y-91603000D01*
X138130853Y-91822946D01*
X137808946Y-92304715D01*
X137695907Y-92873000D01*
X137808946Y-93441285D01*
X138130853Y-93923054D01*
X138460026Y-94143000D01*
X138130853Y-94362946D01*
X137808946Y-94844715D01*
X137695907Y-95413000D01*
X137808946Y-95981285D01*
X138130853Y-96463054D01*
X138460026Y-96683000D01*
X138130853Y-96902946D01*
X137808946Y-97384715D01*
X137695907Y-97953000D01*
X137808946Y-98521285D01*
X138130853Y-99003054D01*
X138460026Y-99223000D01*
X138130853Y-99442946D01*
X137808946Y-99924715D01*
X137695907Y-100493000D01*
X137808946Y-101061285D01*
X138130853Y-101543054D01*
X138460026Y-101763000D01*
X138130853Y-101982946D01*
X137808946Y-102464715D01*
X137695907Y-103033000D01*
X137808946Y-103601285D01*
X138130853Y-104083054D01*
X138460026Y-104303000D01*
X138130853Y-104522946D01*
X137808946Y-105004715D01*
X137695907Y-105573000D01*
X137808946Y-106141285D01*
X138130853Y-106623054D01*
X138471553Y-106850702D01*
X138328642Y-106917817D01*
X137938355Y-107346076D01*
X137768524Y-107756110D01*
X137889845Y-107986000D01*
X139083000Y-107986000D01*
X139083000Y-107966000D01*
X139337000Y-107966000D01*
X139337000Y-107986000D01*
X140530155Y-107986000D01*
X140651476Y-107756110D01*
X140481645Y-107346076D01*
X140249356Y-107091187D01*
X155219252Y-107091187D01*
X155437257Y-107618800D01*
X155840577Y-108022824D01*
X156367809Y-108241750D01*
X156938687Y-108242248D01*
X157466300Y-108024243D01*
X157870324Y-107620923D01*
X158089250Y-107093691D01*
X158089500Y-106807000D01*
X162811387Y-106807000D01*
X162920620Y-107356151D01*
X163231689Y-107821698D01*
X163697236Y-108132767D01*
X164246387Y-108242000D01*
X164302613Y-108242000D01*
X164851764Y-108132767D01*
X165317311Y-107821698D01*
X165628380Y-107356151D01*
X165737613Y-106807000D01*
X165628380Y-106257849D01*
X165317311Y-105792302D01*
X164851764Y-105481233D01*
X164302613Y-105372000D01*
X164246387Y-105372000D01*
X163697236Y-105481233D01*
X163231689Y-105792302D01*
X162920620Y-106257849D01*
X162811387Y-106807000D01*
X158089500Y-106807000D01*
X158089748Y-106522813D01*
X157871743Y-105995200D01*
X157468423Y-105591176D01*
X156941191Y-105372250D01*
X156370313Y-105371752D01*
X155842700Y-105589757D01*
X155438676Y-105993077D01*
X155219750Y-106520309D01*
X155219252Y-107091187D01*
X140249356Y-107091187D01*
X140091358Y-106917817D01*
X139948447Y-106850702D01*
X140289147Y-106623054D01*
X140611054Y-106141285D01*
X140724093Y-105573000D01*
X140611054Y-105004715D01*
X140289147Y-104522946D01*
X139959974Y-104303000D01*
X140289147Y-104083054D01*
X140611054Y-103601285D01*
X140724093Y-103033000D01*
X140611054Y-102464715D01*
X140289147Y-101982946D01*
X139959974Y-101763000D01*
X140289147Y-101543054D01*
X140611054Y-101061285D01*
X140724093Y-100493000D01*
X140611054Y-99924715D01*
X140289147Y-99442946D01*
X139959974Y-99223000D01*
X140289147Y-99003054D01*
X140611054Y-98521285D01*
X140724093Y-97953000D01*
X140611054Y-97384715D01*
X140289147Y-96902946D01*
X139959974Y-96683000D01*
X140289147Y-96463054D01*
X140378050Y-96330000D01*
X151080407Y-96330000D01*
X151193446Y-96898285D01*
X151515353Y-97380054D01*
X151844526Y-97600000D01*
X151515353Y-97819946D01*
X151193446Y-98301715D01*
X151080407Y-98870000D01*
X151193446Y-99438285D01*
X151515353Y-99920054D01*
X151844526Y-100140000D01*
X151515353Y-100359946D01*
X151193446Y-100841715D01*
X151080407Y-101410000D01*
X151193446Y-101978285D01*
X151515353Y-102460054D01*
X151997122Y-102781961D01*
X152565407Y-102895000D01*
X152623593Y-102895000D01*
X153191878Y-102781961D01*
X153673647Y-102460054D01*
X153995554Y-101978285D01*
X154108593Y-101410000D01*
X153995554Y-100841715D01*
X153673647Y-100359946D01*
X153344474Y-100140000D01*
X153673647Y-99920054D01*
X153995554Y-99438285D01*
X154108593Y-98870000D01*
X153995554Y-98301715D01*
X153673647Y-97819946D01*
X153344474Y-97600000D01*
X153673647Y-97380054D01*
X153995554Y-96898285D01*
X154108593Y-96330000D01*
X153995554Y-95761715D01*
X153673647Y-95279946D01*
X153629723Y-95250597D01*
X153804198Y-95178327D01*
X153982827Y-94999699D01*
X154079500Y-94766310D01*
X154079500Y-94075750D01*
X153920750Y-93917000D01*
X152721500Y-93917000D01*
X152721500Y-93937000D01*
X152467500Y-93937000D01*
X152467500Y-93917000D01*
X151268250Y-93917000D01*
X151109500Y-94075750D01*
X151109500Y-94766310D01*
X151206173Y-94999699D01*
X151384802Y-95178327D01*
X151559277Y-95250597D01*
X151515353Y-95279946D01*
X151193446Y-95761715D01*
X151080407Y-96330000D01*
X140378050Y-96330000D01*
X140611054Y-95981285D01*
X140724093Y-95413000D01*
X140611054Y-94844715D01*
X140289147Y-94362946D01*
X139959974Y-94143000D01*
X140289147Y-93923054D01*
X140611054Y-93441285D01*
X140724093Y-92873000D01*
X140712296Y-92813690D01*
X151109500Y-92813690D01*
X151109500Y-93504250D01*
X151268250Y-93663000D01*
X152467500Y-93663000D01*
X152467500Y-92463750D01*
X152721500Y-92463750D01*
X152721500Y-93663000D01*
X153920750Y-93663000D01*
X154079500Y-93504250D01*
X154079500Y-92813690D01*
X153982827Y-92580301D01*
X153804198Y-92401673D01*
X153570809Y-92305000D01*
X152880250Y-92305000D01*
X152721500Y-92463750D01*
X152467500Y-92463750D01*
X152308750Y-92305000D01*
X151618191Y-92305000D01*
X151384802Y-92401673D01*
X151206173Y-92580301D01*
X151109500Y-92813690D01*
X140712296Y-92813690D01*
X140611054Y-92304715D01*
X140289147Y-91822946D01*
X139959974Y-91603000D01*
X140289147Y-91383054D01*
X140481618Y-91095000D01*
X158015500Y-91095000D01*
X158307105Y-91036996D01*
X158554315Y-90871815D01*
X160204815Y-89221316D01*
X160369996Y-88974105D01*
X160376172Y-88943054D01*
X160428000Y-88682500D01*
X160428000Y-83250118D01*
X160716054Y-83057647D01*
X160745403Y-83013723D01*
X160817673Y-83188198D01*
X160996301Y-83366827D01*
X161229690Y-83463500D01*
X161920250Y-83463500D01*
X162079000Y-83304750D01*
X162079000Y-82105500D01*
X162333000Y-82105500D01*
X162333000Y-83304750D01*
X162491750Y-83463500D01*
X163182310Y-83463500D01*
X163415699Y-83366827D01*
X163594327Y-83188198D01*
X163691000Y-82954809D01*
X163691000Y-82264250D01*
X163532250Y-82105500D01*
X162333000Y-82105500D01*
X162079000Y-82105500D01*
X162059000Y-82105500D01*
X162059000Y-81851500D01*
X162079000Y-81851500D01*
X162079000Y-80652250D01*
X162333000Y-80652250D01*
X162333000Y-81851500D01*
X163532250Y-81851500D01*
X163691000Y-81692750D01*
X163691000Y-81002191D01*
X163594327Y-80768802D01*
X163415699Y-80590173D01*
X163182310Y-80493500D01*
X162491750Y-80493500D01*
X162333000Y-80652250D01*
X162079000Y-80652250D01*
X161920250Y-80493500D01*
X161229690Y-80493500D01*
X160996301Y-80590173D01*
X160817673Y-80768802D01*
X160745403Y-80943277D01*
X160716054Y-80899353D01*
X160234285Y-80577446D01*
X159666000Y-80464407D01*
X159097715Y-80577446D01*
X158615946Y-80899353D01*
X158396000Y-81228526D01*
X158176054Y-80899353D01*
X157694285Y-80577446D01*
X157126000Y-80464407D01*
X156557715Y-80577446D01*
X156075946Y-80899353D01*
X155856000Y-81228526D01*
X155636054Y-80899353D01*
X155154285Y-80577446D01*
X154586000Y-80464407D01*
X154017715Y-80577446D01*
X153535946Y-80899353D01*
X153316000Y-81228526D01*
X153096054Y-80899353D01*
X152614285Y-80577446D01*
X152046000Y-80464407D01*
X151477715Y-80577446D01*
X150995946Y-80899353D01*
X150776000Y-81228526D01*
X150556054Y-80899353D01*
X150074285Y-80577446D01*
X149506000Y-80464407D01*
X148937715Y-80577446D01*
X148455946Y-80899353D01*
X148134039Y-81381122D01*
X148021000Y-81949407D01*
X148021000Y-82007593D01*
X148134039Y-82575878D01*
X148455946Y-83057647D01*
X148937715Y-83379554D01*
X149506000Y-83492593D01*
X150074285Y-83379554D01*
X150556054Y-83057647D01*
X150776000Y-82728474D01*
X150995946Y-83057647D01*
X151284000Y-83250118D01*
X151284000Y-84048869D01*
X150841870Y-84491000D01*
X140481618Y-84491000D01*
X140289147Y-84202946D01*
X139959974Y-83983000D01*
X140289147Y-83763054D01*
X140611054Y-83281285D01*
X140724093Y-82713000D01*
X140611054Y-82144715D01*
X140289147Y-81662946D01*
X139959974Y-81443000D01*
X140289147Y-81223054D01*
X140611054Y-80741285D01*
X140724093Y-80173000D01*
X140611054Y-79604715D01*
X140289147Y-79122946D01*
X139959974Y-78903000D01*
X140289147Y-78683054D01*
X140611054Y-78201285D01*
X140724093Y-77633000D01*
X140611054Y-77064715D01*
X140289147Y-76582946D01*
X139959974Y-76363000D01*
X140289147Y-76143054D01*
X140611054Y-75661285D01*
X140724093Y-75093000D01*
X140611054Y-74524715D01*
X140289147Y-74042946D01*
X140247548Y-74015150D01*
X140295317Y-74006162D01*
X140511441Y-73867090D01*
X140656431Y-73654890D01*
X140707440Y-73403000D01*
X140707440Y-71703000D01*
X140663162Y-71467683D01*
X140524090Y-71251559D01*
X140311890Y-71106569D01*
X140060000Y-71055560D01*
X138360000Y-71055560D01*
X138124683Y-71099838D01*
X137908559Y-71238910D01*
X137763569Y-71451110D01*
X137712560Y-71703000D01*
X137712560Y-73403000D01*
X137756838Y-73638317D01*
X137895910Y-73854441D01*
X138108110Y-73999431D01*
X138175541Y-74013086D01*
X138130853Y-74042946D01*
X137808946Y-74524715D01*
X137695907Y-75093000D01*
X115004202Y-75093000D01*
X114911054Y-74624715D01*
X114589147Y-74142946D01*
X114547548Y-74115150D01*
X114595317Y-74106162D01*
X114811441Y-73967090D01*
X114956431Y-73754890D01*
X115007440Y-73503000D01*
X115007440Y-71803000D01*
X114963162Y-71567683D01*
X114824090Y-71351559D01*
X114611890Y-71206569D01*
X114360000Y-71155560D01*
X112660000Y-71155560D01*
X112424683Y-71199838D01*
X112208559Y-71338910D01*
X112063569Y-71551110D01*
X112012560Y-71803000D01*
X112012560Y-73503000D01*
X112056838Y-73738317D01*
X112195910Y-73954441D01*
X112408110Y-74099431D01*
X112475541Y-74113086D01*
X112430853Y-74142946D01*
X112108946Y-74624715D01*
X111995907Y-75193000D01*
X93780675Y-75193000D01*
X93859716Y-75002648D01*
X93860284Y-74352205D01*
X93692513Y-73946167D01*
X96725750Y-73946167D01*
X96945275Y-74477457D01*
X97351405Y-74884297D01*
X97882311Y-75104748D01*
X98457167Y-75105250D01*
X98988457Y-74885725D01*
X99395297Y-74479595D01*
X99615748Y-73948689D01*
X99616250Y-73373833D01*
X99396725Y-72842543D01*
X98990595Y-72435703D01*
X98459689Y-72215252D01*
X97884833Y-72214750D01*
X97353543Y-72434275D01*
X96946703Y-72840405D01*
X96726252Y-73371311D01*
X96725750Y-73946167D01*
X93692513Y-73946167D01*
X93611894Y-73751057D01*
X93152363Y-73290722D01*
X92551648Y-73041284D01*
X91901205Y-73040716D01*
X91300057Y-73289106D01*
X90839722Y-73748637D01*
X90590284Y-74349352D01*
X90589716Y-74999795D01*
X87348893Y-74999795D01*
X87370908Y-74940539D01*
X87346856Y-74290540D01*
X87144387Y-73801736D01*
X86877532Y-73703073D01*
X85904605Y-74676000D01*
X85545395Y-74676000D01*
X84572468Y-73703073D01*
X84305613Y-73801736D01*
X84079092Y-74411461D01*
X80847000Y-74411461D01*
X80847000Y-73523468D01*
X84752073Y-73523468D01*
X85725000Y-74496395D01*
X86697927Y-73523468D01*
X86599264Y-73256613D01*
X85989539Y-73030092D01*
X85339540Y-73054144D01*
X84850736Y-73256613D01*
X84752073Y-73523468D01*
X80847000Y-73523468D01*
X80847000Y-71446167D01*
X101725750Y-71446167D01*
X101945275Y-71977457D01*
X102351405Y-72384297D01*
X102882311Y-72604748D01*
X103457167Y-72605250D01*
X103988457Y-72385725D01*
X104395297Y-71979595D01*
X104615748Y-71448689D01*
X104616250Y-70873833D01*
X104396725Y-70342543D01*
X103990595Y-69935703D01*
X103459689Y-69715252D01*
X102884833Y-69714750D01*
X102353543Y-69934275D01*
X101946703Y-70340405D01*
X101726252Y-70871311D01*
X101725750Y-71446167D01*
X80847000Y-71446167D01*
X80847000Y-69328532D01*
X84752073Y-69328532D01*
X84850736Y-69595387D01*
X85460461Y-69821908D01*
X86110460Y-69797856D01*
X86599264Y-69595387D01*
X86697927Y-69328532D01*
X85725000Y-68355605D01*
X84752073Y-69328532D01*
X80847000Y-69328532D01*
X80847000Y-67911461D01*
X84079092Y-67911461D01*
X84103144Y-68561460D01*
X84305613Y-69050264D01*
X84572468Y-69148927D01*
X85545395Y-68176000D01*
X85904605Y-68176000D01*
X86877532Y-69148927D01*
X87144387Y-69050264D01*
X87348893Y-68499795D01*
X90589716Y-68499795D01*
X90838106Y-69100943D01*
X91297637Y-69561278D01*
X91898352Y-69810716D01*
X92548795Y-69811284D01*
X92878655Y-69674988D01*
X97335617Y-69674988D01*
X97410980Y-69922144D01*
X97951834Y-70116916D01*
X98526055Y-70089886D01*
X98931020Y-69922144D01*
X99006383Y-69674988D01*
X98171000Y-68839605D01*
X97335617Y-69674988D01*
X92878655Y-69674988D01*
X93149943Y-69562894D01*
X93610278Y-69103363D01*
X93859716Y-68502648D01*
X93859769Y-68440834D01*
X96714084Y-68440834D01*
X96741114Y-69015055D01*
X96908856Y-69420020D01*
X97156012Y-69495383D01*
X97991395Y-68660000D01*
X98350605Y-68660000D01*
X99185988Y-69495383D01*
X99433144Y-69420020D01*
X99627916Y-68879166D01*
X99600886Y-68304945D01*
X99433144Y-67899980D01*
X99185988Y-67824617D01*
X98350605Y-68660000D01*
X97991395Y-68660000D01*
X97156012Y-67824617D01*
X96908856Y-67899980D01*
X96714084Y-68440834D01*
X93859769Y-68440834D01*
X93860284Y-67852205D01*
X93774674Y-67645012D01*
X97335617Y-67645012D01*
X98171000Y-68480395D01*
X99006383Y-67645012D01*
X98931020Y-67397856D01*
X98390166Y-67203084D01*
X97815945Y-67230114D01*
X97410980Y-67397856D01*
X97335617Y-67645012D01*
X93774674Y-67645012D01*
X93611894Y-67251057D01*
X93152363Y-66790722D01*
X92551648Y-66541284D01*
X91901205Y-66540716D01*
X91300057Y-66789106D01*
X90839722Y-67248637D01*
X90590284Y-67849352D01*
X90589716Y-68499795D01*
X87348893Y-68499795D01*
X87370908Y-68440539D01*
X87346856Y-67790540D01*
X87144387Y-67301736D01*
X86877532Y-67203073D01*
X85904605Y-68176000D01*
X85545395Y-68176000D01*
X84572468Y-67203073D01*
X84305613Y-67301736D01*
X84079092Y-67911461D01*
X80847000Y-67911461D01*
X80847000Y-67023468D01*
X84752073Y-67023468D01*
X85725000Y-67996395D01*
X86697927Y-67023468D01*
X86599264Y-66756613D01*
X85989539Y-66530092D01*
X85339540Y-66554144D01*
X84850736Y-66756613D01*
X84752073Y-67023468D01*
X80847000Y-67023468D01*
X80847000Y-64972000D01*
X165914000Y-64972000D01*
X165914000Y-123242000D01*
X165914000Y-123242000D01*
G37*
X165914000Y-123242000D02*
X80847000Y-123242000D01*
X80847000Y-121342150D01*
X147884200Y-121342150D01*
X147884200Y-122032709D01*
X147980873Y-122266098D01*
X148159501Y-122444727D01*
X148392890Y-122541400D01*
X149083450Y-122541400D01*
X149242200Y-122382650D01*
X149242200Y-121183400D01*
X148042950Y-121183400D01*
X147884200Y-121342150D01*
X80847000Y-121342150D01*
X80847000Y-120080091D01*
X147884200Y-120080091D01*
X147884200Y-120770650D01*
X148042950Y-120929400D01*
X149242200Y-120929400D01*
X149242200Y-119730150D01*
X149496200Y-119730150D01*
X149496200Y-120929400D01*
X149516200Y-120929400D01*
X149516200Y-121183400D01*
X149496200Y-121183400D01*
X149496200Y-122382650D01*
X149654950Y-122541400D01*
X150345510Y-122541400D01*
X150578899Y-122444727D01*
X150757527Y-122266098D01*
X150829797Y-122091623D01*
X150859146Y-122135547D01*
X151340915Y-122457454D01*
X151909200Y-122570493D01*
X152477485Y-122457454D01*
X152959254Y-122135547D01*
X153179200Y-121806374D01*
X153399146Y-122135547D01*
X153880915Y-122457454D01*
X154449200Y-122570493D01*
X155017485Y-122457454D01*
X155499254Y-122135547D01*
X155719200Y-121806374D01*
X155939146Y-122135547D01*
X156420915Y-122457454D01*
X156989200Y-122570493D01*
X157557485Y-122457454D01*
X158039254Y-122135547D01*
X158361161Y-121653778D01*
X158474200Y-121085493D01*
X158474200Y-121027307D01*
X158361161Y-120459022D01*
X158039254Y-119977253D01*
X157557485Y-119655346D01*
X156989200Y-119542307D01*
X156420915Y-119655346D01*
X155939146Y-119977253D01*
X155719200Y-120306426D01*
X155499254Y-119977253D01*
X155017485Y-119655346D01*
X154449200Y-119542307D01*
X153880915Y-119655346D01*
X153399146Y-119977253D01*
X153179200Y-120306426D01*
X152959254Y-119977253D01*
X152477485Y-119655346D01*
X151909200Y-119542307D01*
X151340915Y-119655346D01*
X150859146Y-119977253D01*
X150829797Y-120021177D01*
X150757527Y-119846702D01*
X150578899Y-119668073D01*
X150345510Y-119571400D01*
X149654950Y-119571400D01*
X149496200Y-119730150D01*
X149242200Y-119730150D01*
X149083450Y-119571400D01*
X148392890Y-119571400D01*
X148159501Y-119668073D01*
X147980873Y-119846702D01*
X147884200Y-120080091D01*
X80847000Y-120080091D01*
X80847000Y-117083795D01*
X86629716Y-117083795D01*
X86878106Y-117684943D01*
X87337637Y-118145278D01*
X87938352Y-118394716D01*
X88588795Y-118395284D01*
X89189943Y-118146894D01*
X89650278Y-117687363D01*
X89899716Y-117086648D01*
X89900284Y-116436205D01*
X89651894Y-115835057D01*
X89192363Y-115374722D01*
X88591648Y-115125284D01*
X87941205Y-115124716D01*
X87340057Y-115373106D01*
X86879722Y-115832637D01*
X86630284Y-116433352D01*
X86629716Y-117083795D01*
X80847000Y-117083795D01*
X80847000Y-112912532D01*
X87292073Y-112912532D01*
X87390736Y-113179387D01*
X88000461Y-113405908D01*
X88650460Y-113381856D01*
X89139264Y-113179387D01*
X89237927Y-112912532D01*
X88265000Y-111939605D01*
X87292073Y-112912532D01*
X80847000Y-112912532D01*
X80847000Y-111495461D01*
X86619092Y-111495461D01*
X86643144Y-112145460D01*
X86845613Y-112634264D01*
X87112468Y-112732927D01*
X88085395Y-111760000D01*
X88444605Y-111760000D01*
X89417532Y-112732927D01*
X89684387Y-112634264D01*
X89910908Y-112024539D01*
X89886856Y-111374540D01*
X89684387Y-110885736D01*
X89417532Y-110787073D01*
X88444605Y-111760000D01*
X88085395Y-111760000D01*
X87112468Y-110787073D01*
X86845613Y-110885736D01*
X86619092Y-111495461D01*
X80847000Y-111495461D01*
X80847000Y-110607468D01*
X87292073Y-110607468D01*
X88265000Y-111580395D01*
X89237927Y-110607468D01*
X89139264Y-110340613D01*
X88529539Y-110114092D01*
X87879540Y-110138144D01*
X87390736Y-110340613D01*
X87292073Y-110607468D01*
X80847000Y-110607468D01*
X80847000Y-107083795D01*
X86629716Y-107083795D01*
X86878106Y-107684943D01*
X87337637Y-108145278D01*
X87938352Y-108394716D01*
X88588795Y-108395284D01*
X89189943Y-108146894D01*
X89650278Y-107687363D01*
X89899716Y-107086648D01*
X89900284Y-106436205D01*
X89651894Y-105835057D01*
X89192363Y-105374722D01*
X88591648Y-105125284D01*
X87941205Y-105124716D01*
X87340057Y-105373106D01*
X86879722Y-105832637D01*
X86630284Y-106433352D01*
X86629716Y-107083795D01*
X80847000Y-107083795D01*
X80847000Y-99811795D01*
X86629716Y-99811795D01*
X86878106Y-100412943D01*
X87337637Y-100873278D01*
X87938352Y-101122716D01*
X88588795Y-101123284D01*
X89189943Y-100874894D01*
X89650278Y-100415363D01*
X89899716Y-99814648D01*
X89900284Y-99164205D01*
X89651894Y-98563057D01*
X89192363Y-98102722D01*
X88591648Y-97853284D01*
X87941205Y-97852716D01*
X87340057Y-98101106D01*
X86879722Y-98560637D01*
X86630284Y-99161352D01*
X86629716Y-99811795D01*
X80847000Y-99811795D01*
X80847000Y-94811795D01*
X86629716Y-94811795D01*
X86878106Y-95412943D01*
X87337637Y-95873278D01*
X87938352Y-96122716D01*
X88588795Y-96123284D01*
X89189943Y-95874894D01*
X89650278Y-95415363D01*
X89899716Y-94814648D01*
X89900284Y-94164205D01*
X89651894Y-93563057D01*
X89192363Y-93102722D01*
X88591648Y-92853284D01*
X87941205Y-92852716D01*
X87340057Y-93101106D01*
X86879722Y-93560637D01*
X86630284Y-94161352D01*
X86629716Y-94811795D01*
X80847000Y-94811795D01*
X80847000Y-89811795D01*
X86629716Y-89811795D01*
X86878106Y-90412943D01*
X87337637Y-90873278D01*
X87938352Y-91122716D01*
X88588795Y-91123284D01*
X89189943Y-90874894D01*
X89650278Y-90415363D01*
X89899716Y-89814648D01*
X89900284Y-89164205D01*
X89651894Y-88563057D01*
X89192363Y-88102722D01*
X88591648Y-87853284D01*
X87941205Y-87852716D01*
X87340057Y-88101106D01*
X86879722Y-88560637D01*
X86630284Y-89161352D01*
X86629716Y-89811795D01*
X80847000Y-89811795D01*
X80847000Y-75828532D01*
X84752073Y-75828532D01*
X84850736Y-76095387D01*
X85460461Y-76321908D01*
X86110460Y-76297856D01*
X86599264Y-76095387D01*
X86697927Y-75828532D01*
X85725000Y-74855605D01*
X84752073Y-75828532D01*
X80847000Y-75828532D01*
X80847000Y-74411461D01*
X84079092Y-74411461D01*
X84103144Y-75061460D01*
X84305613Y-75550264D01*
X84572468Y-75648927D01*
X85545395Y-74676000D01*
X85904605Y-74676000D01*
X86877532Y-75648927D01*
X87144387Y-75550264D01*
X87348893Y-74999795D01*
X90589716Y-74999795D01*
X90838106Y-75600943D01*
X91297637Y-76061278D01*
X91898352Y-76310716D01*
X92548795Y-76311284D01*
X93149943Y-76062894D01*
X93610278Y-75603363D01*
X93780675Y-75193000D01*
X111995907Y-75193000D01*
X112108946Y-75761285D01*
X112430853Y-76243054D01*
X112760026Y-76463000D01*
X112430853Y-76682946D01*
X112108946Y-77164715D01*
X111995907Y-77733000D01*
X112108946Y-78301285D01*
X112430853Y-78783054D01*
X112760026Y-79003000D01*
X112430853Y-79222946D01*
X112108946Y-79704715D01*
X111995907Y-80273000D01*
X112108946Y-80841285D01*
X112430853Y-81323054D01*
X112760026Y-81543000D01*
X112430853Y-81762946D01*
X112108946Y-82244715D01*
X111995907Y-82813000D01*
X112108946Y-83381285D01*
X112430853Y-83863054D01*
X112760026Y-84083000D01*
X112430853Y-84302946D01*
X112108946Y-84784715D01*
X111995907Y-85353000D01*
X112108946Y-85921285D01*
X112430853Y-86403054D01*
X112760026Y-86623000D01*
X112430853Y-86842946D01*
X112108946Y-87324715D01*
X111995907Y-87893000D01*
X112108946Y-88461285D01*
X112430853Y-88943054D01*
X112760026Y-89163000D01*
X112430853Y-89382946D01*
X112108946Y-89864715D01*
X111995907Y-90433000D01*
X112108946Y-91001285D01*
X112430853Y-91483054D01*
X112760026Y-91703000D01*
X112430853Y-91922946D01*
X112108946Y-92404715D01*
X111995907Y-92973000D01*
X112108946Y-93541285D01*
X112430853Y-94023054D01*
X112760026Y-94243000D01*
X112430853Y-94462946D01*
X112108946Y-94944715D01*
X111995907Y-95513000D01*
X112108946Y-96081285D01*
X112430853Y-96563054D01*
X112760026Y-96783000D01*
X112430853Y-97002946D01*
X112108946Y-97484715D01*
X111995907Y-98053000D01*
X112108946Y-98621285D01*
X112430853Y-99103054D01*
X112760026Y-99323000D01*
X112430853Y-99542946D01*
X112108946Y-100024715D01*
X111995907Y-100593000D01*
X112108946Y-101161285D01*
X112430853Y-101643054D01*
X112760026Y-101863000D01*
X112430853Y-102082946D01*
X112108946Y-102564715D01*
X111995907Y-103133000D01*
X112108946Y-103701285D01*
X112430853Y-104183054D01*
X112760026Y-104403000D01*
X112430853Y-104622946D01*
X112108946Y-105104715D01*
X111995907Y-105673000D01*
X112108946Y-106241285D01*
X112430853Y-106723054D01*
X112760026Y-106943000D01*
X112430853Y-107162946D01*
X112108946Y-107644715D01*
X111995907Y-108213000D01*
X112108946Y-108781285D01*
X112430853Y-109263054D01*
X112912622Y-109584961D01*
X113480907Y-109698000D01*
X113539093Y-109698000D01*
X114107378Y-109584961D01*
X114589147Y-109263054D01*
X114911054Y-108781285D01*
X114972994Y-108469890D01*
X137768524Y-108469890D01*
X137938355Y-108879924D01*
X138328642Y-109308183D01*
X138853108Y-109554486D01*
X139083000Y-109433819D01*
X139083000Y-108240000D01*
X139337000Y-108240000D01*
X139337000Y-109433819D01*
X139566892Y-109554486D01*
X140091358Y-109308183D01*
X140481645Y-108879924D01*
X140651476Y-108469890D01*
X140530155Y-108240000D01*
X139337000Y-108240000D01*
X139083000Y-108240000D01*
X137889845Y-108240000D01*
X137768524Y-108469890D01*
X114972994Y-108469890D01*
X115024093Y-108213000D01*
X114911054Y-107644715D01*
X114589147Y-107162946D01*
X114259974Y-106943000D01*
X114589147Y-106723054D01*
X114911054Y-106241285D01*
X115024093Y-105673000D01*
X114911054Y-105104715D01*
X114589147Y-104622946D01*
X114259974Y-104403000D01*
X114589147Y-104183054D01*
X114911054Y-103701285D01*
X115024093Y-103133000D01*
X114911054Y-102564715D01*
X114589147Y-102082946D01*
X114259974Y-101863000D01*
X114589147Y-101643054D01*
X114911054Y-101161285D01*
X115024093Y-100593000D01*
X114911054Y-100024715D01*
X114589147Y-99542946D01*
X114259974Y-99323000D01*
X114589147Y-99103054D01*
X114911054Y-98621285D01*
X115024093Y-98053000D01*
X114911054Y-97484715D01*
X114589147Y-97002946D01*
X114259974Y-96783000D01*
X114589147Y-96563054D01*
X114911054Y-96081285D01*
X115024093Y-95513000D01*
X114911054Y-94944715D01*
X114589147Y-94462946D01*
X114259974Y-94243000D01*
X114589147Y-94023054D01*
X114911054Y-93541285D01*
X115024093Y-92973000D01*
X114911054Y-92404715D01*
X114589147Y-91922946D01*
X114259974Y-91703000D01*
X114589147Y-91483054D01*
X114911054Y-91001285D01*
X115024093Y-90433000D01*
X114911054Y-89864715D01*
X114589147Y-89382946D01*
X114259974Y-89163000D01*
X114589147Y-88943054D01*
X114911054Y-88461285D01*
X115024093Y-87893000D01*
X114911054Y-87324715D01*
X114589147Y-86842946D01*
X114259974Y-86623000D01*
X114589147Y-86403054D01*
X114911054Y-85921285D01*
X115024093Y-85353000D01*
X114911054Y-84784715D01*
X114589147Y-84302946D01*
X114259974Y-84083000D01*
X114589147Y-83863054D01*
X114911054Y-83381285D01*
X115024093Y-82813000D01*
X114911054Y-82244715D01*
X114589147Y-81762946D01*
X114259974Y-81543000D01*
X114589147Y-81323054D01*
X114911054Y-80841285D01*
X115024093Y-80273000D01*
X114911054Y-79704715D01*
X114589147Y-79222946D01*
X114259974Y-79003000D01*
X114589147Y-78783054D01*
X114911054Y-78301285D01*
X115024093Y-77733000D01*
X114911054Y-77164715D01*
X114589147Y-76682946D01*
X114259974Y-76463000D01*
X114589147Y-76243054D01*
X114911054Y-75761285D01*
X115024093Y-75193000D01*
X115004202Y-75093000D01*
X137695907Y-75093000D01*
X137808946Y-75661285D01*
X138130853Y-76143054D01*
X138460026Y-76363000D01*
X138130853Y-76582946D01*
X137808946Y-77064715D01*
X137695907Y-77633000D01*
X137808946Y-78201285D01*
X138130853Y-78683054D01*
X138460026Y-78903000D01*
X138130853Y-79122946D01*
X137808946Y-79604715D01*
X137695907Y-80173000D01*
X137808946Y-80741285D01*
X138130853Y-81223054D01*
X138460026Y-81443000D01*
X138130853Y-81662946D01*
X137808946Y-82144715D01*
X137695907Y-82713000D01*
X137808946Y-83281285D01*
X138130853Y-83763054D01*
X138460026Y-83983000D01*
X138130853Y-84202946D01*
X137808946Y-84684715D01*
X137695907Y-85253000D01*
X137808946Y-85821285D01*
X138130853Y-86303054D01*
X138460026Y-86523000D01*
X138130853Y-86742946D01*
X137808946Y-87224715D01*
X137695907Y-87793000D01*
X137808946Y-88361285D01*
X138130853Y-88843054D01*
X138460026Y-89063000D01*
X138130853Y-89282946D01*
X137808946Y-89764715D01*
X137695907Y-90333000D01*
X137808946Y-90901285D01*
X138130853Y-91383054D01*
X138460026Y-91603000D01*
X138130853Y-91822946D01*
X137808946Y-92304715D01*
X137695907Y-92873000D01*
X137808946Y-93441285D01*
X138130853Y-93923054D01*
X138460026Y-94143000D01*
X138130853Y-94362946D01*
X137808946Y-94844715D01*
X137695907Y-95413000D01*
X137808946Y-95981285D01*
X138130853Y-96463054D01*
X138460026Y-96683000D01*
X138130853Y-96902946D01*
X137808946Y-97384715D01*
X137695907Y-97953000D01*
X137808946Y-98521285D01*
X138130853Y-99003054D01*
X138460026Y-99223000D01*
X138130853Y-99442946D01*
X137808946Y-99924715D01*
X137695907Y-100493000D01*
X137808946Y-101061285D01*
X138130853Y-101543054D01*
X138460026Y-101763000D01*
X138130853Y-101982946D01*
X137808946Y-102464715D01*
X137695907Y-103033000D01*
X137808946Y-103601285D01*
X138130853Y-104083054D01*
X138460026Y-104303000D01*
X138130853Y-104522946D01*
X137808946Y-105004715D01*
X137695907Y-105573000D01*
X137808946Y-106141285D01*
X138130853Y-106623054D01*
X138471553Y-106850702D01*
X138328642Y-106917817D01*
X137938355Y-107346076D01*
X137768524Y-107756110D01*
X137889845Y-107986000D01*
X139083000Y-107986000D01*
X139083000Y-107966000D01*
X139337000Y-107966000D01*
X139337000Y-107986000D01*
X140530155Y-107986000D01*
X140651476Y-107756110D01*
X140481645Y-107346076D01*
X140249356Y-107091187D01*
X155219252Y-107091187D01*
X155437257Y-107618800D01*
X155840577Y-108022824D01*
X156367809Y-108241750D01*
X156938687Y-108242248D01*
X157466300Y-108024243D01*
X157870324Y-107620923D01*
X158089250Y-107093691D01*
X158089500Y-106807000D01*
X162811387Y-106807000D01*
X162920620Y-107356151D01*
X163231689Y-107821698D01*
X163697236Y-108132767D01*
X164246387Y-108242000D01*
X164302613Y-108242000D01*
X164851764Y-108132767D01*
X165317311Y-107821698D01*
X165628380Y-107356151D01*
X165737613Y-106807000D01*
X165628380Y-106257849D01*
X165317311Y-105792302D01*
X164851764Y-105481233D01*
X164302613Y-105372000D01*
X164246387Y-105372000D01*
X163697236Y-105481233D01*
X163231689Y-105792302D01*
X162920620Y-106257849D01*
X162811387Y-106807000D01*
X158089500Y-106807000D01*
X158089748Y-106522813D01*
X157871743Y-105995200D01*
X157468423Y-105591176D01*
X156941191Y-105372250D01*
X156370313Y-105371752D01*
X155842700Y-105589757D01*
X155438676Y-105993077D01*
X155219750Y-106520309D01*
X155219252Y-107091187D01*
X140249356Y-107091187D01*
X140091358Y-106917817D01*
X139948447Y-106850702D01*
X140289147Y-106623054D01*
X140611054Y-106141285D01*
X140724093Y-105573000D01*
X140611054Y-105004715D01*
X140289147Y-104522946D01*
X139959974Y-104303000D01*
X140289147Y-104083054D01*
X140611054Y-103601285D01*
X140724093Y-103033000D01*
X140611054Y-102464715D01*
X140289147Y-101982946D01*
X139959974Y-101763000D01*
X140289147Y-101543054D01*
X140611054Y-101061285D01*
X140724093Y-100493000D01*
X140611054Y-99924715D01*
X140289147Y-99442946D01*
X139959974Y-99223000D01*
X140289147Y-99003054D01*
X140611054Y-98521285D01*
X140724093Y-97953000D01*
X140611054Y-97384715D01*
X140289147Y-96902946D01*
X139959974Y-96683000D01*
X140289147Y-96463054D01*
X140378050Y-96330000D01*
X151080407Y-96330000D01*
X151193446Y-96898285D01*
X151515353Y-97380054D01*
X151844526Y-97600000D01*
X151515353Y-97819946D01*
X151193446Y-98301715D01*
X151080407Y-98870000D01*
X151193446Y-99438285D01*
X151515353Y-99920054D01*
X151844526Y-100140000D01*
X151515353Y-100359946D01*
X151193446Y-100841715D01*
X151080407Y-101410000D01*
X151193446Y-101978285D01*
X151515353Y-102460054D01*
X151997122Y-102781961D01*
X152565407Y-102895000D01*
X152623593Y-102895000D01*
X153191878Y-102781961D01*
X153673647Y-102460054D01*
X153995554Y-101978285D01*
X154108593Y-101410000D01*
X153995554Y-100841715D01*
X153673647Y-100359946D01*
X153344474Y-100140000D01*
X153673647Y-99920054D01*
X153995554Y-99438285D01*
X154108593Y-98870000D01*
X153995554Y-98301715D01*
X153673647Y-97819946D01*
X153344474Y-97600000D01*
X153673647Y-97380054D01*
X153995554Y-96898285D01*
X154108593Y-96330000D01*
X153995554Y-95761715D01*
X153673647Y-95279946D01*
X153629723Y-95250597D01*
X153804198Y-95178327D01*
X153982827Y-94999699D01*
X154079500Y-94766310D01*
X154079500Y-94075750D01*
X153920750Y-93917000D01*
X152721500Y-93917000D01*
X152721500Y-93937000D01*
X152467500Y-93937000D01*
X152467500Y-93917000D01*
X151268250Y-93917000D01*
X151109500Y-94075750D01*
X151109500Y-94766310D01*
X151206173Y-94999699D01*
X151384802Y-95178327D01*
X151559277Y-95250597D01*
X151515353Y-95279946D01*
X151193446Y-95761715D01*
X151080407Y-96330000D01*
X140378050Y-96330000D01*
X140611054Y-95981285D01*
X140724093Y-95413000D01*
X140611054Y-94844715D01*
X140289147Y-94362946D01*
X139959974Y-94143000D01*
X140289147Y-93923054D01*
X140611054Y-93441285D01*
X140724093Y-92873000D01*
X140712296Y-92813690D01*
X151109500Y-92813690D01*
X151109500Y-93504250D01*
X151268250Y-93663000D01*
X152467500Y-93663000D01*
X152467500Y-92463750D01*
X152721500Y-92463750D01*
X152721500Y-93663000D01*
X153920750Y-93663000D01*
X154079500Y-93504250D01*
X154079500Y-92813690D01*
X153982827Y-92580301D01*
X153804198Y-92401673D01*
X153570809Y-92305000D01*
X152880250Y-92305000D01*
X152721500Y-92463750D01*
X152467500Y-92463750D01*
X152308750Y-92305000D01*
X151618191Y-92305000D01*
X151384802Y-92401673D01*
X151206173Y-92580301D01*
X151109500Y-92813690D01*
X140712296Y-92813690D01*
X140611054Y-92304715D01*
X140289147Y-91822946D01*
X139959974Y-91603000D01*
X140289147Y-91383054D01*
X140481618Y-91095000D01*
X158015500Y-91095000D01*
X158307105Y-91036996D01*
X158554315Y-90871815D01*
X160204815Y-89221316D01*
X160369996Y-88974105D01*
X160376172Y-88943054D01*
X160428000Y-88682500D01*
X160428000Y-83250118D01*
X160716054Y-83057647D01*
X160745403Y-83013723D01*
X160817673Y-83188198D01*
X160996301Y-83366827D01*
X161229690Y-83463500D01*
X161920250Y-83463500D01*
X162079000Y-83304750D01*
X162079000Y-82105500D01*
X162333000Y-82105500D01*
X162333000Y-83304750D01*
X162491750Y-83463500D01*
X163182310Y-83463500D01*
X163415699Y-83366827D01*
X163594327Y-83188198D01*
X163691000Y-82954809D01*
X163691000Y-82264250D01*
X163532250Y-82105500D01*
X162333000Y-82105500D01*
X162079000Y-82105500D01*
X162059000Y-82105500D01*
X162059000Y-81851500D01*
X162079000Y-81851500D01*
X162079000Y-80652250D01*
X162333000Y-80652250D01*
X162333000Y-81851500D01*
X163532250Y-81851500D01*
X163691000Y-81692750D01*
X163691000Y-81002191D01*
X163594327Y-80768802D01*
X163415699Y-80590173D01*
X163182310Y-80493500D01*
X162491750Y-80493500D01*
X162333000Y-80652250D01*
X162079000Y-80652250D01*
X161920250Y-80493500D01*
X161229690Y-80493500D01*
X160996301Y-80590173D01*
X160817673Y-80768802D01*
X160745403Y-80943277D01*
X160716054Y-80899353D01*
X160234285Y-80577446D01*
X159666000Y-80464407D01*
X159097715Y-80577446D01*
X158615946Y-80899353D01*
X158396000Y-81228526D01*
X158176054Y-80899353D01*
X157694285Y-80577446D01*
X157126000Y-80464407D01*
X156557715Y-80577446D01*
X156075946Y-80899353D01*
X155856000Y-81228526D01*
X155636054Y-80899353D01*
X155154285Y-80577446D01*
X154586000Y-80464407D01*
X154017715Y-80577446D01*
X153535946Y-80899353D01*
X153316000Y-81228526D01*
X153096054Y-80899353D01*
X152614285Y-80577446D01*
X152046000Y-80464407D01*
X151477715Y-80577446D01*
X150995946Y-80899353D01*
X150776000Y-81228526D01*
X150556054Y-80899353D01*
X150074285Y-80577446D01*
X149506000Y-80464407D01*
X148937715Y-80577446D01*
X148455946Y-80899353D01*
X148134039Y-81381122D01*
X148021000Y-81949407D01*
X148021000Y-82007593D01*
X148134039Y-82575878D01*
X148455946Y-83057647D01*
X148937715Y-83379554D01*
X149506000Y-83492593D01*
X150074285Y-83379554D01*
X150556054Y-83057647D01*
X150776000Y-82728474D01*
X150995946Y-83057647D01*
X151284000Y-83250118D01*
X151284000Y-84048869D01*
X150841870Y-84491000D01*
X140481618Y-84491000D01*
X140289147Y-84202946D01*
X139959974Y-83983000D01*
X140289147Y-83763054D01*
X140611054Y-83281285D01*
X140724093Y-82713000D01*
X140611054Y-82144715D01*
X140289147Y-81662946D01*
X139959974Y-81443000D01*
X140289147Y-81223054D01*
X140611054Y-80741285D01*
X140724093Y-80173000D01*
X140611054Y-79604715D01*
X140289147Y-79122946D01*
X139959974Y-78903000D01*
X140289147Y-78683054D01*
X140611054Y-78201285D01*
X140724093Y-77633000D01*
X140611054Y-77064715D01*
X140289147Y-76582946D01*
X139959974Y-76363000D01*
X140289147Y-76143054D01*
X140611054Y-75661285D01*
X140724093Y-75093000D01*
X140611054Y-74524715D01*
X140289147Y-74042946D01*
X140247548Y-74015150D01*
X140295317Y-74006162D01*
X140511441Y-73867090D01*
X140656431Y-73654890D01*
X140707440Y-73403000D01*
X140707440Y-71703000D01*
X140663162Y-71467683D01*
X140524090Y-71251559D01*
X140311890Y-71106569D01*
X140060000Y-71055560D01*
X138360000Y-71055560D01*
X138124683Y-71099838D01*
X137908559Y-71238910D01*
X137763569Y-71451110D01*
X137712560Y-71703000D01*
X137712560Y-73403000D01*
X137756838Y-73638317D01*
X137895910Y-73854441D01*
X138108110Y-73999431D01*
X138175541Y-74013086D01*
X138130853Y-74042946D01*
X137808946Y-74524715D01*
X137695907Y-75093000D01*
X115004202Y-75093000D01*
X114911054Y-74624715D01*
X114589147Y-74142946D01*
X114547548Y-74115150D01*
X114595317Y-74106162D01*
X114811441Y-73967090D01*
X114956431Y-73754890D01*
X115007440Y-73503000D01*
X115007440Y-71803000D01*
X114963162Y-71567683D01*
X114824090Y-71351559D01*
X114611890Y-71206569D01*
X114360000Y-71155560D01*
X112660000Y-71155560D01*
X112424683Y-71199838D01*
X112208559Y-71338910D01*
X112063569Y-71551110D01*
X112012560Y-71803000D01*
X112012560Y-73503000D01*
X112056838Y-73738317D01*
X112195910Y-73954441D01*
X112408110Y-74099431D01*
X112475541Y-74113086D01*
X112430853Y-74142946D01*
X112108946Y-74624715D01*
X111995907Y-75193000D01*
X93780675Y-75193000D01*
X93859716Y-75002648D01*
X93860284Y-74352205D01*
X93692513Y-73946167D01*
X96725750Y-73946167D01*
X96945275Y-74477457D01*
X97351405Y-74884297D01*
X97882311Y-75104748D01*
X98457167Y-75105250D01*
X98988457Y-74885725D01*
X99395297Y-74479595D01*
X99615748Y-73948689D01*
X99616250Y-73373833D01*
X99396725Y-72842543D01*
X98990595Y-72435703D01*
X98459689Y-72215252D01*
X97884833Y-72214750D01*
X97353543Y-72434275D01*
X96946703Y-72840405D01*
X96726252Y-73371311D01*
X96725750Y-73946167D01*
X93692513Y-73946167D01*
X93611894Y-73751057D01*
X93152363Y-73290722D01*
X92551648Y-73041284D01*
X91901205Y-73040716D01*
X91300057Y-73289106D01*
X90839722Y-73748637D01*
X90590284Y-74349352D01*
X90589716Y-74999795D01*
X87348893Y-74999795D01*
X87370908Y-74940539D01*
X87346856Y-74290540D01*
X87144387Y-73801736D01*
X86877532Y-73703073D01*
X85904605Y-74676000D01*
X85545395Y-74676000D01*
X84572468Y-73703073D01*
X84305613Y-73801736D01*
X84079092Y-74411461D01*
X80847000Y-74411461D01*
X80847000Y-73523468D01*
X84752073Y-73523468D01*
X85725000Y-74496395D01*
X86697927Y-73523468D01*
X86599264Y-73256613D01*
X85989539Y-73030092D01*
X85339540Y-73054144D01*
X84850736Y-73256613D01*
X84752073Y-73523468D01*
X80847000Y-73523468D01*
X80847000Y-71446167D01*
X101725750Y-71446167D01*
X101945275Y-71977457D01*
X102351405Y-72384297D01*
X102882311Y-72604748D01*
X103457167Y-72605250D01*
X103988457Y-72385725D01*
X104395297Y-71979595D01*
X104615748Y-71448689D01*
X104616250Y-70873833D01*
X104396725Y-70342543D01*
X103990595Y-69935703D01*
X103459689Y-69715252D01*
X102884833Y-69714750D01*
X102353543Y-69934275D01*
X101946703Y-70340405D01*
X101726252Y-70871311D01*
X101725750Y-71446167D01*
X80847000Y-71446167D01*
X80847000Y-69328532D01*
X84752073Y-69328532D01*
X84850736Y-69595387D01*
X85460461Y-69821908D01*
X86110460Y-69797856D01*
X86599264Y-69595387D01*
X86697927Y-69328532D01*
X85725000Y-68355605D01*
X84752073Y-69328532D01*
X80847000Y-69328532D01*
X80847000Y-67911461D01*
X84079092Y-67911461D01*
X84103144Y-68561460D01*
X84305613Y-69050264D01*
X84572468Y-69148927D01*
X85545395Y-68176000D01*
X85904605Y-68176000D01*
X86877532Y-69148927D01*
X87144387Y-69050264D01*
X87348893Y-68499795D01*
X90589716Y-68499795D01*
X90838106Y-69100943D01*
X91297637Y-69561278D01*
X91898352Y-69810716D01*
X92548795Y-69811284D01*
X92878655Y-69674988D01*
X97335617Y-69674988D01*
X97410980Y-69922144D01*
X97951834Y-70116916D01*
X98526055Y-70089886D01*
X98931020Y-69922144D01*
X99006383Y-69674988D01*
X98171000Y-68839605D01*
X97335617Y-69674988D01*
X92878655Y-69674988D01*
X93149943Y-69562894D01*
X93610278Y-69103363D01*
X93859716Y-68502648D01*
X93859769Y-68440834D01*
X96714084Y-68440834D01*
X96741114Y-69015055D01*
X96908856Y-69420020D01*
X97156012Y-69495383D01*
X97991395Y-68660000D01*
X98350605Y-68660000D01*
X99185988Y-69495383D01*
X99433144Y-69420020D01*
X99627916Y-68879166D01*
X99600886Y-68304945D01*
X99433144Y-67899980D01*
X99185988Y-67824617D01*
X98350605Y-68660000D01*
X97991395Y-68660000D01*
X97156012Y-67824617D01*
X96908856Y-67899980D01*
X96714084Y-68440834D01*
X93859769Y-68440834D01*
X93860284Y-67852205D01*
X93774674Y-67645012D01*
X97335617Y-67645012D01*
X98171000Y-68480395D01*
X99006383Y-67645012D01*
X98931020Y-67397856D01*
X98390166Y-67203084D01*
X97815945Y-67230114D01*
X97410980Y-67397856D01*
X97335617Y-67645012D01*
X93774674Y-67645012D01*
X93611894Y-67251057D01*
X93152363Y-66790722D01*
X92551648Y-66541284D01*
X91901205Y-66540716D01*
X91300057Y-66789106D01*
X90839722Y-67248637D01*
X90590284Y-67849352D01*
X90589716Y-68499795D01*
X87348893Y-68499795D01*
X87370908Y-68440539D01*
X87346856Y-67790540D01*
X87144387Y-67301736D01*
X86877532Y-67203073D01*
X85904605Y-68176000D01*
X85545395Y-68176000D01*
X84572468Y-67203073D01*
X84305613Y-67301736D01*
X84079092Y-67911461D01*
X80847000Y-67911461D01*
X80847000Y-67023468D01*
X84752073Y-67023468D01*
X85725000Y-67996395D01*
X86697927Y-67023468D01*
X86599264Y-66756613D01*
X85989539Y-66530092D01*
X85339540Y-66554144D01*
X84850736Y-66756613D01*
X84752073Y-67023468D01*
X80847000Y-67023468D01*
X80847000Y-64972000D01*
X165914000Y-64972000D01*
X165914000Y-123242000D01*
M02*
